<svg width="30" height="30" fill="none" xmlns="http://www.w3.org/2000/svg"><path fill-rule="evenodd" clip-rule="evenodd" d="M0 15a15 15 0 1130 0 15 15 0 11-30 0z" fill="#258BDB"/><path d="M15 29.5a14.5 14.5 0 110-29 14.5 14.5 0 010 29z" stroke="#258BDB" stroke-opacity=".54"/><g clip-path="url(#clip0)" fill="#fff"><path d="M22.32 9.83L18.49 6h-6.96v3.53H8v13.5h10.78V19.5h3.53V9.83h.01zm-3.54-2.12l1.83 1.83h-1.83V7.71zm-1 14.33H9V10.53h2.53v8.97h6.25v2.54zm1-3.54V18h-1v.5h-5.25v-7.97h.5v-1h-.5V7h5.25v2.53h-.5v1h.5v.5h1v-.5h2.53v7.97h-2.53z"/><path d="M18.78 15.02h-1v1.99h1v-1.99zM18.78 12.03h-1v1.99h1v-1.99zM16.23 9.53H14.1v1h2.13v-1z"/></g><defs><clipPath id="clip0"><path fill="#fff" transform="translate(8 6)" d="M0 0h14.32v17.04H0z"/></clipPath></defs></svg>