<svg width="30" height="30" fill="none" xmlns="http://www.w3.org/2000/svg"><path fill-rule="evenodd" clip-rule="evenodd" d="M0 15a15 15 0 1130 0 15 15 0 01-30 0z" fill="#F9525C"/><path fill-rule="evenodd" clip-rule="evenodd" d="M0 15a15 15 0 1130 0 15 15 0 01-30 0z" fill="#000" fill-opacity=".2"/><path fill-rule="evenodd" clip-rule="evenodd" d="M8.4 11c0-.5.3-.8.7-.8h11.8c.4 0 .7.3.7.7 0 .4-.3.7-.7.7H9.1a.7.7 0 01-.7-.7z" fill="#fff"/><path fill-rule="evenodd" clip-rule="evenodd" d="M13.7 8.9c-.2 0-.4 0-.5.2l-.2.4v.7h4v-.7l-.2-.4a.6.6 0 00-.5-.2h-2.6zm4.6 1.3v-.7c0-.5-.2-1-.6-1.4a2 2 0 00-1.4-.6h-2.6a2 2 0 00-1.4.6 2 2 0 00-.6 1.4v.7h-1.3c-.4 0-.7.3-.7.7v9.6c0 .5.3 1 .6 1.4.4.4.9.6 1.4.6h6.6c.5 0 1-.2 1.4-.6.3-.4.6-.9.6-1.4v-9.6c0-.4-.3-.7-.7-.7h-1.3zM11 11.6v8.9c0 .1 0 .3.2.4 0 .2.2.2.4.2h6.6c.2 0 .3 0 .4-.2.2 0 .2-.3.2-.4v-9h-7.8z" fill="#fff"/><path fill-rule="evenodd" clip-rule="evenodd" d="M13.7 13.6c.3 0 .6.3.6.7v4.1c0 .4-.3.7-.6.7a.7.7 0 01-.7-.7v-4c0-.5.3-.8.7-.8zM16.3 13.6c.4 0 .7.3.7.7v4.1c0 .4-.3.7-.7.7a.7.7 0 01-.6-.7v-4c0-.5.3-.8.6-.8z" fill="#fff"/></svg>