<svg width="24" height="25" fill="none" xmlns="http://www.w3.org/2000/svg"><path fill-rule="evenodd" clip-rule="evenodd" d="M10.62 7.09c.39-.43.89-.65 1.38-.65.5 0 1 .22 1.38.65.39.43.62 1.04.62 1.69v1.66h-4V8.78c0-.65.23-1.26.62-1.7zM8 10.44V8.78c0-1.12.4-2.21 1.14-3.03A3.86 3.86 0 0112 4.45c1.1 0 2.12.48 2.86 1.3.74.82 1.14 1.91 1.14 3.03v1.66h.67c1.37 0 2.33 1.19 2.33 2.46v5.09c0 1.27-.96 2.45-2.33 2.45H7.33C5.96 20.44 5 19.26 5 18v-5.1c0-1.26.96-2.45 2.33-2.45H8zm7 2H7.33c-.1 0-.33.12-.33.46v5.09c0 .33.23.45.33.45h9.34c.1 0 .33-.12.33-.45v-5.1c0-.33-.23-.45-.33-.45H15z" fill="#fff"/></svg>