<svg width="24" height="24" fill="none" xmlns="http://www.w3.org/2000/svg"><path fill-rule="evenodd" clip-rule="evenodd" d="M10.62 6.65c.39-.43.89-.65 1.38-.65.5 0 1 .22 1.38.65.39.43.62 1.03.62 1.68V10h-4V8.33c0-.65.23-1.25.62-1.68zM8 10V8.33c0-1.11.4-2.2 1.14-3.02A3.86 3.86 0 0112 4c1.1 0 2.12.49 2.86 1.3.74.83 1.14 1.92 1.14 3.03V10h.67c1.37 0 2.33 1.18 2.33 2.45v5.1c0 1.27-.96 2.45-2.33 2.45H7.33C5.96 20 5 18.82 5 17.55v-5.1C5 11.18 5.96 10 7.33 10H8zm7 2H7.33c-.1 0-.33.12-.33.45v5.1c0 .33.23.45.33.45h9.34c.1 0 .33-.12.33-.45v-5.1c0-.33-.23-.45-.33-.45H15z" fill="#fff" fill-opacity=".54"/></svg>