<svg width="30" height="30" fill="none" xmlns="http://www.w3.org/2000/svg"><path fill-rule="evenodd" clip-rule="evenodd" d="M0 15a15 15 0 1130 0 15 15 0 01-30 0z" fill="#258BDB"/><path fill-rule="evenodd" clip-rule="evenodd" d="M0 15a15 15 0 1130 0 15 15 0 01-30 0z" fill="#000" fill-opacity=".17"/><path d="M18.06 17.76c-.5 0-.94.2-1.27.51l-4.63-2.77c.04-.16.06-.31.06-.47 0-.16-.02-.32-.06-.47l4.57-2.75c.35.33.81.54 1.33.54 1.07 0 1.94-.9 1.94-2 0-1.12-.87-2.02-1.94-2.02a1.97 1.97 0 00-1.89 2.48l-4.57 2.75a1.9 1.9 0 00-1.32-.54c-1.08 0-1.95.9-1.95 2 0 1.12.87 2.01 1.95 2.01.51 0 .97-.2 1.32-.54l4.62 2.79a1.95 1.95 0 001.84 2.39c1.04 0 1.89-.88 1.89-1.96s-.85-1.95-1.9-1.95z" fill="#fff"/></svg>