<svg width="50" height="50" fill="none" xmlns="http://www.w3.org/2000/svg"><path fill="#fff" stroke="#E5E5E5" d="M.5.5h49v49H.5z"/><path d="M13.83 38h1.74v-9.59h3.25v-1.45H10.6v1.45h3.24V38zm10.68.2c2.83 0 4.81-2.21 4.81-5.77 0-3.55-1.98-5.68-4.81-5.68-2.84 0-4.8 2.13-4.8 5.69 0 3.55 1.96 5.76 4.8 5.76zm0-1.52c-1.83 0-3.02-1.65-3.02-4.24 0-2.6 1.19-4.17 3.02-4.17s3.03 1.57 3.03 4.17c0 2.59-1.2 4.24-3.03 4.24zm7.1 1.32h1.75v-4.19h1.66c2.4 0 4.16-1.1 4.16-3.52 0-2.49-1.76-3.33-4.22-3.33h-3.34V38zm1.75-5.58v-4.07h1.44c1.75 0 2.67.48 2.67 1.94s-.84 2.13-2.61 2.13h-1.5z" fill="#000" fill-opacity=".47"/><path d="M31.12 20L25 13.82 18.88 20 17 18.1l8-8.1 8 8.1-1.88 1.9z" fill="#000" fill-opacity=".54"/></svg>