<svg width="32" height="32" fill="none" xmlns="http://www.w3.org/2000/svg"><path fill-rule="evenodd" clip-rule="evenodd" d="M1 16a15 15 0 1130 0 15 15 0 01-30 0z" fill="#fff" stroke="#3E4653" stroke-opacity=".54"/><g clip-path="url(#clip0)" fill-rule="evenodd" clip-rule="evenodd" fill="#3E4653"><path d="M14.84 19.07c0 .4-.34.74-.75.74H9.62a.75.75 0 01-.75-.74v-4.48a.75.75 0 011.5 0v3.73h3.72c.41 0 .75.33.75.75z"/><path d="M9.07 19.58a.75.75 0 01.04-1.05l3.45-3.25a7.47 7.47 0 0112.3 2.79.75.75 0 01-1.4.5 5.96 5.96 0 00-9.86-2.22h-.01l-3.46 3.26a.75.75 0 01-1.06-.03z"/></g><defs><clipPath id="clip0"><path fill="#fff" d="M6 6h20v20H6z"/></clipPath></defs></svg>