<svg width="32" height="32" viewBox="0 0 32 32" fill="none" xmlns="http://www.w3.org/2000/svg">
<path fill-rule="evenodd" clip-rule="evenodd" d="M0 4C0 1.79086 1.79086 0 4 0H28C30.2091 0 32 1.79086 32 4V28C32 30.2091 30.2091 32 28 32H4C1.79086 32 0 30.2091 0 28V4Z" fill="black"/>
<path fill-rule="evenodd" clip-rule="evenodd" d="M8.3204 7.2779C8.11859 7.49362 8 7.82771 8 8.26126V23.7387C8 24.1723 8.11859 24.5064 8.3204 24.7221L8.37172 24.7725L16.9568 16.1023V15.8977L8.37172 7.22747L8.3204 7.2779Z" fill="#00D7FE"/>
<mask id="mask0_395_1949" style="mask-type:alpha" maskUnits="userSpaceOnUse" x="16" y="13" width="8" height="6">
<path d="M19.8174 18.9935L16.9567 16.1023V15.8978L19.8188 13.0072L23.2739 14.9893C24.242 15.5455 24.242 16.4546 23.2739 17.01L19.8833 18.9557L19.8174 18.9935Z" fill="white"/>
</mask>
<g mask="url(#mask0_395_1949)">
<path fill-rule="evenodd" clip-rule="evenodd" d="M19.8173 18.9935L16.9565 16.1023V15.8977L19.8187 13.0072L23.2738 14.9893C24.2419 15.5454 24.2419 16.4546 23.2738 17.01L19.8832 18.9557L19.8173 18.9935Z" fill="url(#paint0_linear_395_1949)"/>
</g>
<mask id="mask1_395_1949" style="mask-type:alpha" maskUnits="userSpaceOnUse" x="8" y="16" width="12" height="9">
<path d="M19.8832 18.9557L16.9565 16L8.32019 24.7221C8.6399 25.0632 9.16697 25.1052 9.76062 24.7648L19.8832 18.9557Z" fill="white"/>
</mask>
<g mask="url(#mask1_395_1949)">
<path fill-rule="evenodd" clip-rule="evenodd" d="M19.8832 18.9557L16.9565 16L8.32019 24.7221C8.6399 25.0632 9.16697 25.1052 9.76062 24.7648L19.8832 18.9557Z" fill="url(#paint1_linear_395_1949)"/>
</g>
<mask id="mask2_395_1949" style="mask-type:alpha" maskUnits="userSpaceOnUse" x="8" y="7" width="12" height="9">
<path d="M19.8832 13.0443L9.76062 7.23518C9.16697 6.89479 8.6399 6.93681 8.32019 7.27791L16.9565 16L19.8832 13.0443Z" fill="white"/>
</mask>
<g mask="url(#mask2_395_1949)">
<path fill-rule="evenodd" clip-rule="evenodd" d="M19.8832 13.0443L9.76062 7.23518C9.16697 6.89479 8.6399 6.93681 8.32019 7.27791L16.9565 16L19.8832 13.0443Z" fill="url(#paint2_linear_395_1949)"/>
</g>
<defs>
<linearGradient id="paint0_linear_395_1949" x1="22.6439" y1="16.0002" x2="16.9565" y2="16.0002" gradientUnits="userSpaceOnUse">
<stop stop-color="#FFBC00"/>
<stop offset="1" stop-color="#FFDA03"/>
</linearGradient>
<linearGradient id="paint1_linear_395_1949" x1="18.2927" y1="18.7811" x2="10.8104" y2="24.8879" gradientUnits="userSpaceOnUse">
<stop stop-color="#E22652"/>
<stop offset="1" stop-color="#FF3A44"/>
</linearGradient>
<linearGradient id="paint2_linear_395_1949" x1="9.62793" y1="8.32792" x2="14.6196" y2="12.674" gradientUnits="userSpaceOnUse">
<stop stop-color="#0ED574"/>
<stop offset="1" stop-color="#07F076"/>
</linearGradient>
</defs>
</svg>
