<svg width="32" height="32" viewBox="0 0 32 32" fill="none" xmlns="http://www.w3.org/2000/svg">
<path fill-rule="evenodd" clip-rule="evenodd" d="M0 4C0 1.79086 1.79086 0 4 0H28C30.2091 0 32 1.79086 32 4V28C32 30.2091 30.2091 32 28 32H4C1.79086 32 0 30.2091 0 28V4Z" fill="url(#paint0_linear_395_2401)"/>
<path fill-rule="evenodd" clip-rule="evenodd" d="M13.8973 7.0795C13.4473 7.26003 13.0939 7.77469 13.0939 8.24954C13.0939 8.58172 13.1849 8.78664 13.8586 9.97178C14.2173 10.6028 14.5108 11.1397 14.5108 11.1647C14.5108 11.1897 14.261 11.649 13.9556 12.1854C13.6502 12.7217 13.1402 13.6185 12.8223 14.1783C12.5043 14.7382 12.1912 15.2878 12.1264 15.3998C12.0617 15.5117 11.6606 16.2171 11.2351 16.9672L10.4615 18.3312L8.69976 18.3515L6.93808 18.3719L6.70893 18.4861C5.91044 18.8842 5.75388 19.9661 6.40639 20.5767C6.50388 20.668 6.68663 20.7818 6.81252 20.8296L7.04134 20.9165H12.8568H18.6723L18.7269 20.7839C19.0987 19.8804 18.6026 18.7523 17.6868 18.4185C17.6083 18.39 16.824 18.3667 15.4708 18.3527L13.3762 18.3312L13.8291 17.5372C14.0782 17.1006 14.6587 16.0838 15.1192 15.2776C15.5796 14.4715 16.1575 13.4547 16.4033 13.018C16.6492 12.5813 17.2878 11.4578 17.8225 10.5212C18.3571 9.58463 18.8224 8.72353 18.8563 8.60766C18.98 8.18521 18.8485 7.70283 18.5181 7.36723C18.2654 7.11048 18.0346 7.01749 17.6456 7.01554C17.0481 7.01253 16.7804 7.21752 16.3146 8.03473C15.9545 8.66661 16.0253 8.67085 15.6542 7.99528C15.5206 7.75193 15.3484 7.48224 15.2716 7.39597C14.952 7.03691 14.3495 6.89812 13.8973 7.0795ZM8.91387 21.4213C8.78743 21.4489 8.6769 21.4794 8.66824 21.4892C8.56201 21.6084 7.67252 23.2674 7.63699 23.4127C7.39858 24.3865 8.37076 25.2575 9.30147 24.904C9.6887 24.7569 9.82457 24.5853 10.5068 23.3817C10.8489 22.7782 11.1288 22.2586 11.1288 22.2271C11.1288 22.1351 10.7058 21.7518 10.4561 21.6176C10.3298 21.5498 10.1285 21.465 10.0087 21.4293C9.75234 21.3529 9.24464 21.3492 8.91387 21.4213Z" fill="white"/>
<path d="M16.953 13.4191C17.0643 12.9859 17.3527 12.4006 17.5831 12.1404C17.6857 12.0246 17.7898 11.9366 17.8145 11.945C17.8535 11.9582 18.8082 13.6134 20.9274 17.3421L21.5089 18.3652L23.1612 18.3655C24.2052 18.3658 24.8917 18.3824 25.026 18.4106C25.4096 18.4914 25.7201 18.734 25.9067 19.0987C25.9859 19.2534 26.0004 19.3421 25.9999 19.6687C25.9993 20.1173 25.932 20.2901 25.6431 20.5834C25.3337 20.8974 25.1769 20.9309 24.0138 20.9309C23.4392 20.9309 23.0128 20.9467 23.0128 20.9679C23.0128 20.9883 23.3051 21.5213 23.6623 22.1524L24.3118 23.2998L24.3897 23.54C24.4059 23.8844 24.3393 24.0415 24.2175 24.2926C23.8461 25.0585 22.832 25.2409 22.2324 24.6497C22.0937 24.5129 21.8707 24.1438 21.0681 22.7223C20.809 22.2632 20.4294 21.5945 20.2248 21.2362C20.02 20.8779 19.5289 20.0168 19.1334 19.3227C17.0472 15.6615 17.0908 15.7446 16.951 15.1617C16.8326 14.6685 16.8335 13.8841 16.953 13.4191Z" fill="white"/>
<defs>
<linearGradient id="paint0_linear_395_2401" x1="16" y1="0" x2="16" y2="32" gradientUnits="userSpaceOnUse">
<stop stop-color="#1AD5FE"/>
<stop offset="1" stop-color="#1E63EF"/>
</linearGradient>
</defs>
</svg>
