<?xml version="1.0" standalone="no"?>
<!DOCTYPE svg PUBLIC "-//W3C//DTD SVG 20010904//EN"
 "http://www.w3.org/TR/2001/REC-SVG-20010904/DTD/svg10.dtd">
<svg version="1.0" xmlns="http://www.w3.org/2000/svg"
 width="512.000000pt" height="512.000000pt" viewBox="0 0 512.000000 512.000000"
 preserveAspectRatio="xMidYMid meet">

<g transform="translate(0.000000,512.000000) scale(0.100000,-0.100000)"
fill="#000000" stroke="none">
<path d="M1770 5109 c-686 -70 -1288 -490 -1581 -1104 -431 -902 -101 -1986
766 -2510 555 -336 1262 -364 1853 -73 298 147 533 348 737 633 85 118 205
360 254 511 229 704 45 1460 -482 1986 -406 405 -987 614 -1547 557z m505
-318 c605 -130 1076 -557 1254 -1138 56 -182 66 -257 66 -488 -1 -180 -4 -225
-24 -315 -129 -599 -541 -1063 -1108 -1249 -191 -63 -342 -84 -558 -78 -191 5
-292 21 -453 72 -501 159 -900 551 -1068 1049 -66 193 -79 285 -79 531 1 243
13 324 76 515 185 564 676 992 1264 1104 125 24 129 24 335 21 154 -2 216 -7
295 -24z"/>
<path d="M1295 4506 c-42 -18 -83 -69 -91 -111 -9 -52 12 -152 47 -224 31 -62
99 -141 148 -172 l25 -15 -39 -65 c-22 -35 -63 -101 -92 -147 l-53 -82 -103
52 -102 53 -100 0 c-86 0 -106 -3 -143 -23 -65 -35 -128 -98 -157 -156 -58
-119 -38 -234 49 -275 50 -25 75 -26 119 -7 46 20 78 59 92 113 7 26 18 51 26
56 11 7 54 -10 147 -57 l132 -66 0 -180 0 -180 -98 0 c-162 0 -274 -41 -368
-134 -77 -78 -134 -207 -134 -305 0 -58 35 -117 84 -140 53 -26 79 -26 131 -1
49 24 73 62 85 135 18 113 67 145 218 145 l100 0 7 -37 c10 -54 51 -147 95
-217 l38 -60 -34 -45 c-105 -137 -154 -353 -103 -457 15 -31 32 -48 63 -63 53
-26 79 -26 131 -1 56 27 77 67 86 165 7 81 27 135 67 182 l19 21 90 -33 c194
-73 367 -72 558 4 l76 31 24 -28 c35 -39 65 -124 65 -184 0 -75 30 -132 84
-157 53 -26 79 -26 132 0 65 31 89 87 81 193 -8 110 -41 206 -103 297 l-52 76
36 53 35 52 -554 554 -554 554 593 0 592 0 0 -120 c0 -66 2 -120 5 -120 3 0
65 30 137 66 93 47 136 64 147 57 8 -5 19 -30 26 -56 21 -84 95 -137 171 -122
45 8 100 57 114 101 27 80 -24 220 -105 292 -70 61 -141 85 -240 80 -72 -4
-90 -10 -184 -57 -81 -41 -106 -50 -112 -39 -5 7 -46 73 -91 147 l-81 134 29
20 c119 84 212 275 190 392 -14 75 -99 134 -172 120 -71 -13 -112 -69 -129
-176 -3 -21 -15 -49 -27 -64 -41 -53 -59 -55 -420 -55 -297 0 -337 2 -367 18
-48 24 -70 58 -81 127 -10 62 -29 96 -71 128 -34 24 -96 31 -134 13z"/>
<path d="M2690 2893 c0 -71 -3 -138 -6 -150 -6 -23 -5 -23 95 -23 113 0 156
-12 189 -55 12 -15 24 -43 27 -64 12 -77 26 -110 60 -140 64 -56 147 -50 204
14 38 44 47 89 32 168 -27 142 -118 265 -241 325 -80 39 -145 52 -266 52 l-94
0 0 -127z"/>
<path d="M3857 1263 l-317 -318 437 -436 c377 -375 446 -439 496 -462 183 -85
375 -53 509 85 141 146 173 337 86 518 -28 58 -76 111 -462 498 l-431 432
-318 -317z"/>
</g>
</svg>
