<svg width="64" height="64" fill="none" xmlns="http://www.w3.org/2000/svg"><circle cx="32" cy="32" r="32" fill="#12375C"/><path d="M18.34 25.24c-.65 0-1.2.23-1.66.7a2.28 2.28 0 00-.68 1.65v9.93c0 .66.23 1.22.68 1.68.46.46 1 .7 1.66.7a2.33 2.33 0 002.32-2.38v-9.93c0-.64-.23-1.2-.68-1.66-.46-.46-1-.7-1.64-.7zM37.16 16.33l1.61-3.02c.1-.2.07-.36-.11-.46-.2-.1-.35-.05-.46.13l-1.63 3.05a11.03 11.03 0 00-4.57-.97c-1.6 0-3.13.32-4.57.97l-1.63-3.05c-.11-.18-.26-.23-.46-.13-.18.1-.22.26-.11.46l1.61 3.02a10.02 10.02 0 00-3.9 3.54 9.05 9.05 0 00-1.46 4.98H42.5c0-1.8-.48-3.46-1.45-4.98a10.06 10.06 0 00-3.9-3.54zm-9.33 4.4a.84.84 0 01-.63.26.8.8 0 01-.6-.26.9.9 0 01-.26-.64.9.9 0 01.25-.63.81.81 0 01.61-.27c.25 0 .46.09.63.27.17.18.26.39.26.63 0 .25-.09.46-.26.64zm9.58 0a.8.8 0 01-.61.26.84.84 0 01-.63-.26.87.87 0 01-.26-.64c0-.24.09-.45.26-.63a.85.85 0 01.63-.27c.24 0 .44.09.6.27a.9.9 0 01.26.63c0 .25-.08.46-.25.64zM21.57 41.05c0 .7.24 1.3.73 1.8.48.49 1.07.73 1.77.73h1.68l.02 5.24c0 .66.23 1.23.68 1.69.46.46 1 .69 1.64.69.65 0 1.2-.23 1.66-.7.45-.45.68-1.02.68-1.68v-5.24h3.14v5.24c0 .66.23 1.23.68 1.69.45.46 1 .69 1.66.69.65 0 1.2-.23 1.66-.7.45-.45.68-1.02.68-1.68v-5.24h1.7c.69 0 1.27-.24 1.75-.73.49-.5.73-1.1.73-1.8V25.68H21.57v15.37zM45.66 25.24c-.64 0-1.18.23-1.64.68a2.27 2.27 0 00-.68 1.67v9.92c0 .67.23 1.23.68 1.69.46.46 1 .7 1.64.7.65 0 1.2-.24 1.66-.7.45-.46.68-1.02.68-1.69V27.6c0-.66-.23-1.22-.68-1.67-.46-.45-1.01-.68-1.66-.68z" fill="#fff"/></svg>