<svg width="24" height="24" fill="none" xmlns="http://www.w3.org/2000/svg"><path fill-rule="evenodd" clip-rule="evenodd" d="M2 12a10 10 0 1120 0 10 10 0 01-20 0zm8.38-4.75c.1-.1.26-.16.42-.16h2.4c.16 0 .31.06.42.16.12.1.18.24.18.39v.54h-3.6v-.54c0-.15.06-.29.18-.39zM9 8.18v-.54c0-.44.19-.85.53-1.16.33-.3.8-.48 1.27-.48h2.4c.48 0 .94.17 1.27.48.34.3.53.72.53 1.16v.54h2.4c.33 0 .6.25.6.55 0 .3-.27.54-.6.54h-.6v7.1c0 .43-.19.84-.53 1.15-.33.3-.8.48-1.27.48H9a1.9 1.9 0 01-1.27-.48c-.34-.3-.53-.72-.53-1.16V9.27h-.6c-.33 0-.6-.24-.6-.54 0-.3.27-.55.6-.55H9zm-.6 1.1v7.08c0 .15.06.29.18.39.1.1.26.16.42.16h6c.16 0 .31-.06.42-.16.12-.1.18-.24.18-.39V9.27H8.4zm2.4 1.63c.33 0 .6.24.6.54v3.28c0 .3-.27.54-.6.54-.33 0-.6-.24-.6-.54v-3.28c0-.3.27-.54.6-.54zm3 3.82v-3.28c0-.3-.27-.54-.6-.54-.33 0-.6.24-.6.54v3.28c0 .3.27.54.6.54.33 0 .6-.24.6-.54z" fill="#fff"/></svg>