<svg width="12" height="14" viewBox="0 0 12 14" fill="none" xmlns="http://www.w3.org/2000/svg">
<path d="M10.0555 9.75771C9.56294 9.75771 9.1222 9.95851 8.78516 10.2731L4.16387 7.49532C4.19628 7.34137 4.2222 7.18743 4.2222 7.02678C4.2222 6.86614 4.19628 6.71219 4.16387 6.55824L8.73331 3.80724C9.08331 4.14191 9.5435 4.34941 10.0555 4.34941C11.1315 4.34941 12 3.45249 12 2.34138C12 1.23026 11.1315 0.333344 10.0555 0.333344C8.97961 0.333344 8.11109 1.23026 8.11109 2.34138C8.11109 2.50202 8.13702 2.65597 8.16942 2.80992L3.59998 5.56092C3.24998 5.22625 2.78979 5.01875 2.27776 5.01875C1.20183 5.01875 0.333313 5.91567 0.333313 7.02678C0.333313 8.13789 1.20183 9.03482 2.27776 9.03482C2.78979 9.03482 3.24998 8.82732 3.59998 8.49265L8.21479 11.2771C8.18239 11.4177 8.16294 11.5649 8.16294 11.7122C8.16294 12.7898 9.01202 13.6667 10.0555 13.6667C11.0991 13.6667 11.9481 12.7898 11.9481 11.7122C11.9481 10.6345 11.0991 9.75771 10.0555 9.75771Z" fill="#258BDB"/>
</svg>
