<svg width="64" height="64" fill="none" xmlns="http://www.w3.org/2000/svg"><circle cx="32" cy="32" r="32" fill="#258BDB"/><path d="M33.29 18.78c2-2.77 4.8-2.78 4.8-2.78s.4 2.6-1.59 5.12c-2.12 2.68-4.54 2.24-4.54 2.24s-.46-2.11 1.33-4.58zm-1.08 6.4c1.04 0 2.95-1.49 5.44-1.49 4.3 0 5.98 3.2 5.98 3.2s-3.3 1.77-3.3 6.07a7.08 7.08 0 004.11 6.51s-2.87 8.48-6.75 8.48c-1.79 0-3.17-1.26-5.05-1.26-1.92 0-3.82 1.31-5.06 1.31-3.54 0-8.02-8.05-8.02-14.51 0-6.37 3.79-9.7 7.34-9.7 2.32 0 4.11 1.4 5.31 1.4z" fill="#fff"/></svg>