<?xml version="1.0" encoding="UTF-8"?>
<!DOCTYPE svg PUBLIC "-//W3C//DTD SVG 1.1//EN" "http://www.w3.org/Graphics/SVG/1.1/DTD/svg11.dtd">
<svg xmlns="http://www.w3.org/2000/svg" version="1.1" width="128px" height="128px" style="shape-rendering:geometricPrecision; text-rendering:geometricPrecision; image-rendering:optimizeQuality; fill-rule:evenodd; clip-rule:evenodd" xmlns:xlink="http://www.w3.org/1999/xlink">
<g><path style="opacity:0.94" fill="#6b6b6b" d="M 108.5,109.5 C 108.67,110.822 108.337,111.989 107.5,113C 79.502,113.5 51.502,113.667 23.5,113.5C 23.166,95.4812 22.4993,77.4812 21.5,59.5C 21.7135,57.8561 21.3802,56.3561 20.5,55C 21.062,49.2584 22.062,43.5918 23.5,38C 23.1667,37.6667 22.8333,37.3333 22.5,37C 24.1579,31.0726 26.1579,24.9059 28.5,18.5C 27.5291,17.0379 27.8624,15.7046 29.5,14.5C 53.8265,13.3335 78.1598,13.1669 102.5,14C 105.227,23.407 107.727,32.907 110,42.5C 109.94,64.8365 109.44,87.1698 108.5,109.5 Z"/></g>
<g><path style="opacity:1" fill="#dcdcdc" d="M 28.5,22.5 C 29.5729,24.3469 29.5729,26.3469 28.5,28.5C 27.962,30.1172 27.6287,31.7839 27.5,33.5C 26.2121,35.0348 26.2121,36.7015 27.5,38.5C 53.1532,36.7969 78.8198,35.1303 104.5,33.5C 104.232,31.901 104.566,30.5676 105.5,29.5C 106.675,34.5307 108.008,39.5307 109.5,44.5C 80.5,45.8333 51.5,45.8333 22.5,44.5C 24.7079,37.2117 26.7079,29.8784 28.5,22.5 Z"/></g>
<g><path style="opacity:1" fill="#cfcfcf" d="M 101.5,15.5 C 103.123,19.9777 104.456,24.6444 105.5,29.5C 104.566,30.5676 104.232,31.901 104.5,33.5C 78.8198,35.1303 53.1532,36.7969 27.5,38.5C 26.2121,36.7015 26.2121,35.0348 27.5,33.5C 52.7965,31.6502 78.1298,30.3169 103.5,29.5C 103.634,27.7085 103.301,26.0418 102.5,24.5C 101.962,22.8828 101.629,21.2161 101.5,19.5C 100.89,18.609 100.557,17.609 100.5,16.5C 101.167,16.5 101.5,16.1667 101.5,15.5 Z"/></g>
<g><path style="opacity:1" fill="#c0c0c0" d="M 102.5,24.5 C 103.301,26.0418 103.634,27.7085 103.5,29.5C 78.1298,30.3169 52.7965,31.6502 27.5,33.5C 27.6287,31.7839 27.962,30.1172 28.5,28.5C 53.2099,27.6828 77.8766,26.3494 102.5,24.5 Z"/></g>
<g><path style="opacity:1" fill="#b6b6b6" d="M 30.5,17.5 C 30.8333,17.5 31.1667,17.5 31.5,17.5C 31.369,18.2389 31.5357,18.9056 32,19.5C 33.0113,18.6634 34.1779,18.33 35.5,18.5C 35.5,19.5 35.5,20.5 35.5,21.5C 41.1145,22.5219 48.7811,22.8552 58.5,22.5C 72.8417,21.5367 87.175,20.5367 101.5,19.5C 101.629,21.2161 101.962,22.8828 102.5,24.5C 77.8766,26.3494 53.2099,27.6828 28.5,28.5C 29.5729,26.3469 29.5729,24.3469 28.5,22.5C 28.7959,20.597 29.4625,18.9303 30.5,17.5 Z"/></g>
<g><path style="opacity:1" fill="#dcdcdc" d="M 35.5,18.5 C 42.4702,19.1664 49.4702,19.833 56.5,20.5C 57.1067,20.3764 57.44,20.0431 57.5,19.5C 58.404,20.209 58.7373,21.209 58.5,22.5C 48.7811,22.8552 41.1145,22.5219 35.5,21.5C 35.5,20.5 35.5,19.5 35.5,18.5 Z"/></g>
<g><path style="opacity:1" fill="#f9f9f9" d="M 31.5,17.5 C 40.5645,16.8636 49.2312,17.5302 57.5,19.5C 57.44,20.0431 57.1067,20.3764 56.5,20.5C 49.4702,19.833 42.4702,19.1664 35.5,18.5C 34.1779,18.33 33.0113,18.6634 32,19.5C 31.5357,18.9056 31.369,18.2389 31.5,17.5 Z"/></g>
<g><path style="opacity:1" fill="#a6a6a6" d="M 31.5,17.5 C 54.3273,16.5025 77.3273,16.1692 100.5,16.5C 100.557,17.609 100.89,18.609 101.5,19.5C 87.175,20.5367 72.8417,21.5367 58.5,22.5C 58.7373,21.209 58.404,20.209 57.5,19.5C 49.2312,17.5302 40.5645,16.8636 31.5,17.5 Z"/></g>
<g><path style="opacity:1" fill="#e6e6e6" d="M 101.5,15.5 C 101.5,16.1667 101.167,16.5 100.5,16.5C 77.3273,16.1692 54.3273,16.5025 31.5,17.5C 31.1667,17.5 30.8333,17.5 30.5,17.5C 53.8098,15.51 77.4764,14.8433 101.5,15.5 Z"/></g>
<g><path style="opacity:1" fill="#e8e8e8" d="M 23.5,46.5 C 51.8333,46.5 80.1667,46.5 108.5,46.5C 108.5,54.1667 108.5,61.8333 108.5,69.5C 107.539,67.7354 107.205,65.7354 107.5,63.5C 107.5,62.5 107.5,61.5 107.5,60.5C 107.5,56.1667 107.5,51.8333 107.5,47.5C 79.8333,47.5 52.1667,47.5 24.5,47.5C 23.8333,47.5 23.5,47.1667 23.5,46.5 Z"/></g>
<g><path style="opacity:1" fill="#929292" d="M 24.5,47.5 C 52.1667,47.5 79.8333,47.5 107.5,47.5C 107.5,51.8333 107.5,56.1667 107.5,60.5C 79.7821,57.1116 52.1154,53.4449 24.5,49.5C 24.5,48.8333 24.5,48.1667 24.5,47.5 Z"/></g>
<g><path style="opacity:1" fill="#9a9a9a" d="M 24.5,49.5 C 52.1154,53.4449 79.7821,57.1116 107.5,60.5C 107.5,61.5 107.5,62.5 107.5,63.5C 106.532,65.6074 106.198,67.9407 106.5,70.5C 95.5322,68.9207 84.5322,67.5874 73.5,66.5C 73.5,64.5 73.5,62.5 73.5,60.5C 71.8333,60.5 70.1667,60.5 68.5,60.5C 54.0342,58.0236 39.3676,56.0236 24.5,54.5C 24.5,52.8333 24.5,51.1667 24.5,49.5 Z"/></g>
<g><path style="opacity:0.1" fill="#000000" d="M 21.5,59.5 C 22.4993,77.4812 23.166,95.4812 23.5,113.5C 51.502,113.667 79.502,113.5 107.5,113C 108.337,111.989 108.67,110.822 108.5,109.5C 114.94,110.36 121.273,111.694 127.5,113.5C 127.5,115.833 127.5,118.167 127.5,120.5C 112.938,124.297 98.2711,126.631 83.5,127.5C 70.1667,127.5 56.8333,127.5 43.5,127.5C 28.7204,126.63 14.0538,124.297 -0.5,120.5C -0.5,118.167 -0.5,115.833 -0.5,113.5C 6.33894,111.359 13.3389,109.859 20.5,109C 21.0219,108.439 21.3552,107.772 21.5,107C 16.9416,96.6588 12.775,86.1588 9,75.5C 6.89745,70.698 5.73078,65.698 5.5,60.5C 10.8221,60.0199 16.1554,59.6865 21.5,59.5 Z"/></g>
<g><path style="opacity:1" fill="#a5a5a5" d="M 23.5,46.5 C 23.5,47.1667 23.8333,47.5 24.5,47.5C 24.5,48.1667 24.5,48.8333 24.5,49.5C 24.5,51.1667 24.5,52.8333 24.5,54.5C 39.3676,56.0236 54.0342,58.0236 68.5,60.5C 64.5,60.5 60.5,60.5 56.5,60.5C 57.1995,64.7978 57.5328,69.1311 57.5,73.5C 46.3691,72.4015 35.3691,70.7348 24.5,68.5C 24.9693,63.0141 24.636,59.6807 23.5,58.5C 22.1667,54.5 22.1667,50.5 23.5,46.5 Z"/></g>
<g><path style="opacity:1" fill="#757575" d="M 68.5,60.5 C 70.1667,60.5 71.8333,60.5 73.5,60.5C 73.5,62.5 73.5,64.5 73.5,66.5C 72.8333,71.8333 72.1667,77.1667 71.5,82.5C 73.8083,82.0862 76.1417,81.7529 78.5,81.5C 80.3328,81.5854 81.6661,82.2521 82.5,83.5C 79.7915,86.2085 77.4581,89.2085 75.5,92.5C 72.7052,94.7514 70.3719,97.4181 68.5,100.5C 65.9226,104.43 63.5893,104.097 61.5,99.5C 57.156,94.1272 52.8227,88.7939 48.5,83.5C 48.9704,82.3065 49.9704,81.6399 51.5,81.5C 53.8183,81.9971 56.1516,82.3305 58.5,82.5C 58.7359,79.3915 58.4025,76.3915 57.5,73.5C 57.5328,69.1311 57.1995,64.7978 56.5,60.5C 60.5,60.5 64.5,60.5 68.5,60.5 Z"/></g>
<g><path style="opacity:1" fill="#989898" d="M 70.5,84.5 C 69.596,83.791 69.2627,82.791 69.5,81.5C 66.5448,80.8413 63.5448,80.5079 60.5,80.5C 59.7604,74.5101 59.0937,68.5101 58.5,62.5C 62.8333,62.5 67.1667,62.5 71.5,62.5C 70.9625,69.8219 70.6291,77.1553 70.5,84.5 Z"/></g>
<g><path style="opacity:1" fill="#aaaaaa" d="M 107.5,63.5 C 107.205,65.7354 107.539,67.7354 108.5,69.5C 108.815,73.3714 108.482,77.0381 107.5,80.5C 107.664,77.8127 107.497,75.146 107,72.5C 106.501,77.1548 106.334,81.8215 106.5,86.5C 98.5611,85.128 90.5611,84.128 82.5,83.5C 81.6661,82.2521 80.3328,81.5854 78.5,81.5C 76.1417,81.7529 73.8083,82.0862 71.5,82.5C 72.1667,77.1667 72.8333,71.8333 73.5,66.5C 84.5322,67.5874 95.5322,68.9207 106.5,70.5C 106.198,67.9407 106.532,65.6074 107.5,63.5 Z"/></g>
<g><path style="opacity:1" fill="#b3b3b3" d="M 24.5,68.5 C 35.3691,70.7348 46.3691,72.4015 57.5,73.5C 58.4025,76.3915 58.7359,79.3915 58.5,82.5C 56.1516,82.3305 53.8183,81.9971 51.5,81.5C 49.9704,81.6399 48.9704,82.3065 48.5,83.5C 40.8225,82.582 33.1558,81.582 25.5,80.5C 25.4955,76.4659 25.1621,72.4659 24.5,68.5 Z"/></g>
<g><path style="opacity:1" fill="#bcbcbc" d="M 82.5,83.5 C 90.5611,84.128 98.5611,85.128 106.5,86.5C 106.296,89.5176 105.963,92.5176 105.5,95.5C 95.4986,94.4997 85.4986,93.4997 75.5,92.5C 77.4581,89.2085 79.7915,86.2085 82.5,83.5 Z"/></g>
<g><path style="opacity:1" fill="#c7c7c7" d="M 25.5,80.5 C 33.1558,81.582 40.8225,82.582 48.5,83.5C 52.8227,88.7939 57.156,94.1272 61.5,99.5C 49.501,98.1668 37.501,96.8335 25.5,95.5C 25.5,90.5 25.5,85.5 25.5,80.5 Z"/></g>
<g><path style="opacity:1" fill="#aaaaaa" d="M 60.5,80.5 C 63.5448,80.5079 66.5448,80.8413 69.5,81.5C 69.2627,82.791 69.596,83.791 70.5,84.5C 73.4686,83.6713 76.4686,83.5046 79.5,84C 75.0233,89.9776 70.3566,95.811 65.5,101.5C 60.6737,95.8354 56.007,90.002 51.5,84C 54.5314,83.5046 57.5314,83.6713 60.5,84.5C 60.5,83.1667 60.5,81.8333 60.5,80.5 Z"/></g>
<g><path style="opacity:1" fill="#d0d0d0" d="M 25.5,95.5 C 37.501,96.8335 49.501,98.1668 61.5,99.5C 63.5893,104.097 65.9226,104.43 68.5,100.5C 80.7553,102.441 93.0886,104.108 105.5,105.5C 105.5,107.167 105.5,108.833 105.5,110.5C 78.8103,107.806 52.3103,104.139 26,99.5C 25.51,98.2068 25.3433,96.8734 25.5,95.5 Z"/></g>
<g><path style="opacity:1" fill="#c9c9c9" d="M 107.5,80.5 C 107.826,89.0168 107.493,97.3501 106.5,105.5C 106.167,97.5 105.833,97.5 105.5,105.5C 93.0886,104.108 80.7553,102.441 68.5,100.5C 70.3719,97.4181 72.7052,94.7514 75.5,92.5C 85.4986,93.4997 95.4986,94.4997 105.5,95.5C 105.963,92.5176 106.296,89.5176 106.5,86.5C 106.334,81.8215 106.501,77.1548 107,72.5C 107.497,75.146 107.664,77.8127 107.5,80.5 Z"/></g>
<g><path style="opacity:1" fill="#d9d9d9" d="M 24.5,68.5 C 25.1621,72.4659 25.4955,76.4659 25.5,80.5C 25.5,85.5 25.5,90.5 25.5,95.5C 25.3433,96.8734 25.51,98.2068 26,99.5C 52.3103,104.139 78.8103,107.806 105.5,110.5C 105.5,108.833 105.5,107.167 105.5,105.5C 105.833,97.5 106.167,97.5 106.5,105.5C 106.5,107.833 106.5,110.167 106.5,112.5C 79.1667,112.5 51.8333,112.5 24.5,112.5C 24.0748,94.5021 23.7415,76.5021 23.5,58.5C 24.636,59.6807 24.9693,63.0141 24.5,68.5 Z"/></g>
</svg>
