<?xml version="1.0" encoding="UTF-8"?>
<!DOCTYPE svg PUBLIC "-//W3C//DTD SVG 1.1//EN" "http://www.w3.org/Graphics/SVG/1.1/DTD/svg11.dtd">
<svg xmlns="http://www.w3.org/2000/svg" version="1.1" width="128px" height="128px" style="shape-rendering:geometricPrecision; text-rendering:geometricPrecision; image-rendering:optimizeQuality; fill-rule:evenodd; clip-rule:evenodd" xmlns:xlink="http://www.w3.org/1999/xlink">
<g><path style="opacity:0.996" fill="#7f6c3f" d="M 108.5,109.5 C 108.67,110.822 108.337,111.989 107.5,113C 79.502,113.5 51.502,113.667 23.5,113.5C 23.166,95.4812 22.4993,77.4812 21.5,59.5C 21.7135,57.8561 21.3802,56.3561 20.5,55C 21.062,49.2584 22.062,43.5918 23.5,38C 23.1667,37.6667 22.8333,37.3333 22.5,37C 24.1579,31.0726 26.1579,24.9059 28.5,18.5C 27.5291,17.0379 27.8624,15.7046 29.5,14.5C 53.8265,13.3335 78.1598,13.1669 102.5,14C 105.227,23.407 107.727,32.907 110,42.5C 109.94,64.8365 109.44,87.1698 108.5,109.5 Z"/></g>
<g><path style="opacity:1" fill="#caaa6a" d="M 31.5,17.5 C 54.3297,16.337 77.3297,16.1703 100.5,17C 101.337,18.0113 101.67,19.1779 101.5,20.5C 99.369,21.3138 97.0356,21.8138 94.5,22C 72.8334,23.2407 51.1668,24.4074 29.5,25.5C 29.7373,24.209 29.404,23.209 28.5,22.5C 28.3284,21.5084 28.6618,20.8417 29.5,20.5C 29.8333,21.5 30.5,22.1667 31.5,22.5C 40.5,22.5 49.5,22.5 58.5,22.5C 58.7373,21.209 58.404,20.209 57.5,19.5C 50.5762,17.5367 43.2428,16.8701 35.5,17.5C 34.1667,17.5 32.8333,17.5 31.5,17.5 Z"/></g>
<g><path style="opacity:1" fill="#efe2c3" d="M 28.5,22.5 C 29.404,23.209 29.7373,24.209 29.5,25.5C 28.7659,26.7079 28.4326,28.0413 28.5,29.5C 27.6993,31.0418 27.366,32.7085 27.5,34.5C 26.596,35.209 26.2627,36.209 26.5,37.5C 25.0762,39.5145 24.4095,41.8478 24.5,44.5C 52.1667,44.5 79.8333,44.5 107.5,44.5C 107.258,40.521 106.258,36.8544 104.5,33.5C 104.768,31.901 104.434,30.5676 103.5,29.5C 103.768,27.901 103.434,26.5676 102.5,25.5C 102.784,23.5853 102.451,21.9187 101.5,20.5C 101.67,19.1779 101.337,18.0113 100.5,17C 77.3297,16.1703 54.3297,16.337 31.5,17.5C 31.5,19.1667 31.5,20.8333 31.5,22.5C 30.5,22.1667 29.8333,21.5 29.5,20.5C 29.4208,19.0695 29.7542,17.7362 30.5,16.5C 54.4907,15.5003 78.4907,15.1669 102.5,15.5C 104.36,25.2717 106.693,34.9384 109.5,44.5C 80.5,45.8333 51.5,45.8333 22.5,44.5C 24.7079,37.2117 26.7079,29.8784 28.5,22.5 Z"/></g>
<g><path style="opacity:1" fill="#f4da9e" d="M 104.5,33.5 C 106.258,36.8544 107.258,40.521 107.5,44.5C 79.8333,44.5 52.1667,44.5 24.5,44.5C 24.4095,41.8478 25.0762,39.5145 26.5,37.5C 26.56,38.0431 26.8933,38.3764 27.5,38.5C 53.2913,36.7906 78.958,35.1239 104.5,33.5 Z"/></g>
<g><path style="opacity:1" fill="#e9cc8f" d="M 103.5,29.5 C 104.434,30.5676 104.768,31.901 104.5,33.5C 78.958,35.1239 53.2913,36.7906 27.5,38.5C 26.8933,38.3764 26.56,38.0431 26.5,37.5C 26.2627,36.209 26.596,35.209 27.5,34.5C 52.7997,32.7608 78.1331,31.0942 103.5,29.5 Z"/></g>
<g><path style="opacity:1" fill="#dfc283" d="M 102.5,25.5 C 103.434,26.5676 103.768,27.901 103.5,29.5C 78.1331,31.0942 52.7997,32.7608 27.5,34.5C 27.366,32.7085 27.6993,31.0418 28.5,29.5C 53.1761,28.3143 77.8428,26.981 102.5,25.5 Z"/></g>
<g><path style="opacity:1" fill="#d5b777" d="M 101.5,20.5 C 102.451,21.9187 102.784,23.5853 102.5,25.5C 77.8428,26.981 53.1761,28.3143 28.5,29.5C 28.4326,28.0413 28.7659,26.7079 29.5,25.5C 51.1668,24.4074 72.8334,23.2407 94.5,22C 97.0356,21.8138 99.369,21.3138 101.5,20.5 Z"/></g>
<g><path style="opacity:1" fill="#dfdacf" d="M 31.5,17.5 C 32.8333,17.5 34.1667,17.5 35.5,17.5C 35.5,17.8333 35.5,18.1667 35.5,18.5C 42.6676,19.1501 49.8343,19.8167 57,20.5C 57.3988,20.2716 57.5654,19.9382 57.5,19.5C 58.404,20.209 58.7373,21.209 58.5,22.5C 49.5,22.5 40.5,22.5 31.5,22.5C 31.5,20.8333 31.5,19.1667 31.5,17.5 Z"/></g>
<g><path style="opacity:1" fill="#79a9f5" d="M 35.5,18.5 C 35.5,19.5 35.5,20.5 35.5,21.5C 34.5,21.5 33.5,21.5 32.5,21.5C 32.5,20.5 32.5,19.5 32.5,18.5C 33.5,18.5 34.5,18.5 35.5,18.5 Z"/></g>
<g><path style="opacity:1" fill="#fcfaf7" d="M 35.5,18.5 C 35.5,18.1667 35.5,17.8333 35.5,17.5C 43.2428,16.8701 50.5762,17.5367 57.5,19.5C 57.5654,19.9382 57.3988,20.2716 57,20.5C 49.8343,19.8167 42.6676,19.1501 35.5,18.5 Z"/></g>
<g><path style="opacity:1" fill="#f2e7cb" d="M 23.5,46.5 C 51.8333,46.5 80.1667,46.5 108.5,46.5C 108.5,53.5 108.5,60.5 108.5,67.5C 108.167,67.5 107.833,67.5 107.5,67.5C 107.5,65.5 107.5,63.5 107.5,61.5C 107.5,56.8333 107.5,52.1667 107.5,47.5C 79.8333,47.5 52.1667,47.5 24.5,47.5C 23.8333,47.5 23.5,47.1667 23.5,46.5 Z"/></g>
<g><path style="opacity:1" fill="#b4924f" d="M 24.5,47.5 C 52.1667,47.5 79.8333,47.5 107.5,47.5C 107.5,52.1667 107.5,56.8333 107.5,61.5C 106.539,63.2646 106.205,65.2646 106.5,67.5C 96.2776,66.5873 86.1109,65.2539 76,63.5C 75.0979,63.7432 74.2646,64.0766 73.5,64.5C 73.5,63.1667 73.5,61.8333 73.5,60.5C 67.8333,60.5 62.1667,60.5 56.5,60.5C 56.5,61.5 56.5,62.5 56.5,63.5C 45.8333,61.8333 35.1667,60.1667 24.5,58.5C 24.5,54.8333 24.5,51.1667 24.5,47.5 Z"/></g>
<g><path style="opacity:0.105" fill="#010000" d="M 21.5,59.5 C 22.4993,77.4812 23.166,95.4812 23.5,113.5C 51.502,113.667 79.502,113.5 107.5,113C 108.337,111.989 108.67,110.822 108.5,109.5C 114.94,110.36 121.273,111.694 127.5,113.5C 127.5,115.833 127.5,118.167 127.5,120.5C 112.938,124.297 98.2711,126.631 83.5,127.5C 70.1667,127.5 56.8333,127.5 43.5,127.5C 28.7204,126.63 14.0538,124.297 -0.5,120.5C -0.5,118.167 -0.5,115.833 -0.5,113.5C 6.33894,111.359 13.3389,109.859 20.5,109C 21.0219,108.439 21.3552,107.772 21.5,107C 16.9416,96.6588 12.775,86.1588 9,75.5C 6.89745,70.698 5.73078,65.698 5.5,60.5C 10.8221,60.0199 16.1554,59.6865 21.5,59.5 Z"/></g>
<g><path style="opacity:1" fill="#c6a664" d="M 24.5,58.5 C 35.1667,60.1667 45.8333,61.8333 56.5,63.5C 57.4025,66.3915 57.7359,69.3915 57.5,72.5C 46.4753,71.3536 35.4753,70.0202 24.5,68.5C 24.5,65.1667 24.5,61.8333 24.5,58.5 Z"/></g>
<g><path style="opacity:1" fill="#c3a361" d="M 107.5,61.5 C 107.5,63.5 107.5,65.5 107.5,67.5C 106.612,70.0545 106.279,72.7212 106.5,75.5C 106.5,75.8333 106.5,76.1667 106.5,76.5C 96.3243,75.2905 86.1577,73.9572 76,72.5C 74.7441,72.6483 73.5774,72.9816 72.5,73.5C 73.1587,70.5448 73.4921,67.5448 73.5,64.5C 74.2646,64.0766 75.0979,63.7432 76,63.5C 86.1109,65.2539 96.2776,66.5873 106.5,67.5C 106.205,65.2646 106.539,63.2646 107.5,61.5 Z"/></g>
<g><path style="opacity:1" fill="#d5c196" d="M 107.5,67.5 C 107.833,67.5 108.167,67.5 108.5,67.5C 108.818,72.0323 108.485,76.3656 107.5,80.5C 107.784,78.5853 107.451,76.9187 106.5,75.5C 106.279,72.7212 106.612,70.0545 107.5,67.5 Z"/></g>
<g><path style="opacity:1" fill="#cfb071" d="M 24.5,68.5 C 35.4753,70.0202 46.4753,71.3536 57.5,72.5C 58.2071,75.7861 58.5405,79.1194 58.5,82.5C 55.0145,81.4095 51.6812,81.4095 48.5,82.5C 47.6906,81.5313 46.6906,80.6979 45.5,80C 38.8233,79.1654 32.1566,78.3321 25.5,77.5C 25.7947,75.2646 25.4614,73.2646 24.5,71.5C 24.5,70.5 24.5,69.5 24.5,68.5 Z"/></g>
<g><path style="opacity:1" fill="#ceaf6f" d="M 106.5,76.5 C 106.608,81.8699 106.275,87.2032 105.5,92.5C 96.2036,91.1713 86.8702,90.1713 77.5,89.5C 78.9117,87.0199 80.5784,84.6866 82.5,82.5C 78.8614,81.5397 75.1947,81.5397 71.5,82.5C 72.1587,79.5448 72.4921,76.5448 72.5,73.5C 73.5774,72.9816 74.7441,72.6483 76,72.5C 86.1577,73.9572 96.3243,75.2905 106.5,76.5 Z"/></g>
<g><path style="opacity:1" fill="#dec182" d="M 24.5,71.5 C 25.4614,73.2646 25.7947,75.2646 25.5,77.5C 32.1566,78.3321 38.8233,79.1654 45.5,80C 46.6906,80.6979 47.6906,81.5313 48.5,82.5C 51.8333,86.8333 55.1667,91.1667 58.5,95.5C 47.4443,94.5763 36.4443,93.243 25.5,91.5C 25.2871,84.8259 24.9538,78.1593 24.5,71.5 Z"/></g>
<g><path style="opacity:1" fill="#8c774c" d="M 73.5,64.5 C 73.4921,67.5448 73.1587,70.5448 72.5,73.5C 72.4921,76.5448 72.1587,79.5448 71.5,82.5C 75.1947,81.5397 78.8614,81.5397 82.5,82.5C 80.5784,84.6866 78.9117,87.0199 77.5,89.5C 75.1223,91.8785 73.1223,94.5451 71.5,97.5C 69.1606,99.1728 67.1606,101.173 65.5,103.5C 62.6974,101.217 60.3641,98.5503 58.5,95.5C 55.1667,91.1667 51.8333,86.8333 48.5,82.5C 51.6812,81.4095 55.0145,81.4095 58.5,82.5C 58.5405,79.1194 58.2071,75.7861 57.5,72.5C 57.7359,69.3915 57.4025,66.3915 56.5,63.5C 56.5,62.5 56.5,61.5 56.5,60.5C 62.1667,60.5 67.8333,60.5 73.5,60.5C 73.5,61.8333 73.5,63.1667 73.5,64.5 Z"/></g>
<g><path style="opacity:1" fill="#b4975c" d="M 70.5,84.5 C 69.5489,83.0813 69.2155,81.4147 69.5,79.5C 66.4552,79.4921 63.4552,79.1587 60.5,78.5C 59.6699,73.1925 59.0032,67.8592 58.5,62.5C 62.8333,62.5 67.1667,62.5 71.5,62.5C 70.9625,69.8219 70.6291,77.1553 70.5,84.5 Z"/></g>
<g><path style="opacity:1" fill="#ebddbc" d="M 23.5,46.5 C 23.5,47.1667 23.8333,47.5 24.5,47.5C 24.5,51.1667 24.5,54.8333 24.5,58.5C 24.5,61.8333 24.5,65.1667 24.5,68.5C 24.5,69.5 24.5,70.5 24.5,71.5C 24.9538,78.1593 25.2871,84.8259 25.5,91.5C 25.189,98.0898 25.5223,104.59 26.5,111C 52.8312,111.5 79.1646,111.667 105.5,111.5C 105.5,108.5 105.5,105.5 105.5,102.5C 105.5,99.1667 105.5,95.8333 105.5,92.5C 106.275,87.2032 106.608,81.8699 106.5,76.5C 106.5,76.1667 106.5,75.8333 106.5,75.5C 107.451,76.9187 107.784,78.5853 107.5,80.5C 107.646,91.1875 107.312,101.854 106.5,112.5C 79.1667,112.5 51.8333,112.5 24.5,112.5C 24.1985,92.4877 23.5319,72.4877 22.5,52.5C 22.5046,50.3035 22.838,48.3035 23.5,46.5 Z"/></g>
<g><path style="opacity:1" fill="#ecd093" d="M 25.5,91.5 C 36.4443,93.243 47.4443,94.5763 58.5,95.5C 60.3641,98.5503 62.6974,101.217 65.5,103.5C 67.1606,101.173 69.1606,99.1728 71.5,97.5C 82.883,99.0056 94.2163,100.672 105.5,102.5C 105.5,105.5 105.5,108.5 105.5,111.5C 79.1646,111.667 52.8312,111.5 26.5,111C 25.5223,104.59 25.189,98.0898 25.5,91.5 Z"/></g>
<g><path style="opacity:1" fill="#dfc283" d="M 77.5,89.5 C 86.8702,90.1713 96.2036,91.1713 105.5,92.5C 105.5,95.8333 105.5,99.1667 105.5,102.5C 94.2163,100.672 82.883,99.0056 71.5,97.5C 73.1223,94.5451 75.1223,91.8785 77.5,89.5 Z"/></g>
<g><path style="opacity:1" fill="#c2a66c" d="M 60.5,78.5 C 63.4552,79.1587 66.4552,79.4921 69.5,79.5C 69.2155,81.4147 69.5489,83.0813 70.5,84.5C 73.4686,83.6713 76.4686,83.5046 79.5,84C 75.0233,89.9776 70.3566,95.811 65.5,101.5C 60.6737,95.8354 56.007,90.002 51.5,84C 54.5314,83.5046 57.5314,83.6713 60.5,84.5C 60.5,82.5 60.5,80.5 60.5,78.5 Z"/></g>
</svg>
