<svg width="20" height="20" fill="none" xmlns="http://www.w3.org/2000/svg"><path fill-rule="evenodd" clip-rule="evenodd" d="M0 10C0 4.48 4.48 0 10 0s10 4.48 10 10-4.48 10-10 10S0 15.52 0 10Zm11.969 2.946a1.794 1.794 0 0 1 1.198-.464c.984 0 1.784.79 1.784 1.759 0 .97-.8 1.759-1.784 1.759s-1.785-.79-1.785-1.759c0-.133.019-.265.05-.392L7.08 11.343a1.84 1.84 0 0 1-1.247.488A1.818 1.818 0 0 1 4 10.024c0-1 .819-1.807 1.833-1.807.483 0 .917.187 1.247.488l4.308-2.476a1.949 1.949 0 0 1-.055-.422c0-1 .82-1.807 1.834-1.807C14.18 4 15 4.807 15 5.807c0 1-.819 1.807-1.833 1.807a1.84 1.84 0 0 1-1.247-.487L7.612 9.602c.03.139.055.278.055.422 0 .145-.025.283-.055.422l4.357 2.5Z" fill="#fff"/></svg>