<?xml version="1.0" encoding="UTF-8"?>
<!DOCTYPE svg PUBLIC "-//W3C//DTD SVG 1.1//EN" "http://www.w3.org/Graphics/SVG/1.1/DTD/svg11.dtd">
<svg xmlns="http://www.w3.org/2000/svg" version="1.1" width="1024px" height="1022px" style="shape-rendering:geometricPrecision; text-rendering:geometricPrecision; image-rendering:optimizeQuality; fill-rule:evenodd; clip-rule:evenodd" xmlns:xlink="http://www.w3.org/1999/xlink">
<g><path style="opacity:0.986" fill="#ebe4cb" d="M 469.5,-0.5 C 497.833,-0.5 526.167,-0.5 554.5,-0.5C 717.914,17.2767 846.08,93.2767 939,227.5C 988.636,304.536 1016.8,388.869 1023.5,480.5C 1023.5,500.5 1023.5,520.5 1023.5,540.5C 1010.67,694.352 944.67,819.519 825.5,916C 745.176,976.135 654.842,1011.3 554.5,1021.5C 526.833,1021.5 499.167,1021.5 471.5,1021.5C 306.853,1004.63 177.686,928.634 84,793.5C 34.3635,716.42 6.19685,632.087 -0.5,540.5C -0.5,520.5 -0.5,500.5 -0.5,480.5C 12.3005,326.71 78.3005,201.543 197.5,105C 278.082,44.5689 368.749,9.40226 469.5,-0.5 Z M 502.5,71.5 C 658.521,73.2514 782.021,136.585 873,261.5C 939.1,360.267 962.767,468.601 944,586.5C 914.678,729.07 836.178,834.57 708.5,903C 577.21,964.685 445.877,964.685 314.5,903C 186.985,834.768 108.485,729.601 79,587.5C 59.7779,463.746 86.1112,351.08 158,249.5C 244.961,137.594 359.794,78.2609 502.5,71.5 Z M 550.5,330.5 C 584.753,329.252 599.587,345.585 595,379.5C 563.203,475.891 531.203,572.225 499,668.5C 488.59,687.32 472.757,694.153 451.5,689C 437.136,684.304 428.97,674.471 427,659.5C 426.196,653.431 426.529,647.431 428,641.5C 459.795,545.113 491.795,448.78 524,352.5C 527.441,344.059 533.274,337.893 541.5,334C 544.718,333.1 547.718,331.933 550.5,330.5 Z M 309.5,378.5 C 327.208,374.679 341.708,379.679 353,393.5C 360.569,408.652 360.235,423.652 352,438.5C 328.065,460.443 303.565,481.61 278.5,502C 276.355,505.312 273.688,508.146 270.5,510.5C 294.899,532.216 319.565,553.716 344.5,575C 356.344,585.53 360.844,598.697 358,614.5C 354.341,628.158 345.841,637.325 332.5,642C 324.833,642.667 317.167,642.667 309.5,642C 306.382,640.941 303.382,639.608 300.5,638C 269.785,612.404 239.619,586.237 210,559.5C 187.167,535.499 182.833,508.499 197,478.5C 201.333,472.833 205.667,467.167 210,461.5C 240.287,434.428 271.12,407.928 302.5,382C 305.069,381.102 307.402,379.935 309.5,378.5 Z M 690.5,378.5 C 698.174,378.334 705.841,378.5 713.5,379C 715.833,380 718.167,381 720.5,382C 751.88,407.928 782.713,434.428 813,461.5C 817.333,467.167 821.667,472.833 826,478.5C 837.333,499.833 837.333,521.167 826,542.5C 821.333,548.5 816.667,554.5 812,560.5C 784.18,585.315 756.013,609.815 727.5,634C 723.453,637.692 718.786,640.359 713.5,642C 695.792,646.32 681.292,641.486 670,627.5C 662.471,612.308 662.804,597.308 671,582.5C 695.268,560.224 720.101,538.724 745.5,518C 747.311,515.022 749.644,512.522 752.5,510.5C 728.142,488.794 703.475,467.294 678.5,446C 666.656,435.47 662.156,422.303 665,406.5C 668.808,392.86 677.308,383.527 690.5,378.5 Z"/></g>
<g><path style="opacity:1" fill="#00a1e8" d="M 503.5,72.5 C 658.716,74.847 781.549,138.18 872,262.5C 938.352,361.441 961.852,469.941 942.5,588C 918.116,706.535 857.116,800.869 759.5,871C 642.196,947.935 515.863,966.935 380.5,928C 237.554,878.72 141.72,782.554 93,639.5C 60.7421,527.675 69.7421,419.342 120,314.5C 168.569,221.907 240.402,153.74 335.5,110C 389.182,86.699 445.182,74.199 503.5,72.5 Z M 550.5,330.5 C 547.718,331.933 544.718,333.1 541.5,334C 533.274,337.893 527.441,344.059 524,352.5C 491.795,448.78 459.795,545.113 428,641.5C 426.529,647.431 426.196,653.431 427,659.5C 428.97,674.471 437.136,684.304 451.5,689C 472.757,694.153 488.59,687.32 499,668.5C 531.203,572.225 563.203,475.891 595,379.5C 599.587,345.585 584.753,329.252 550.5,330.5 Z M 309.5,378.5 C 307.402,379.935 305.069,381.102 302.5,382C 271.12,407.928 240.287,434.428 210,461.5C 205.667,467.167 201.333,472.833 197,478.5C 182.833,508.499 187.167,535.499 210,559.5C 239.619,586.237 269.785,612.404 300.5,638C 303.382,639.608 306.382,640.941 309.5,642C 317.167,642.667 324.833,642.667 332.5,642C 345.841,637.325 354.341,628.158 358,614.5C 360.844,598.697 356.344,585.53 344.5,575C 319.565,553.716 294.899,532.216 270.5,510.5C 273.688,508.146 276.355,505.312 278.5,502C 303.565,481.61 328.065,460.443 352,438.5C 360.235,423.652 360.569,408.652 353,393.5C 341.708,379.679 327.208,374.679 309.5,378.5 Z M 690.5,378.5 C 677.308,383.527 668.808,392.86 665,406.5C 662.156,422.303 666.656,435.47 678.5,446C 703.475,467.294 728.142,488.794 752.5,510.5C 749.644,512.522 747.311,515.022 745.5,518C 720.101,538.724 695.268,560.224 671,582.5C 662.804,597.308 662.471,612.308 670,627.5C 681.292,641.486 695.792,646.32 713.5,642C 718.786,640.359 723.453,637.692 727.5,634C 756.013,609.815 784.18,585.315 812,560.5C 816.667,554.5 821.333,548.5 826,542.5C 837.333,521.167 837.333,499.833 826,478.5C 821.667,472.833 817.333,467.167 813,461.5C 782.713,434.428 751.88,407.928 720.5,382C 718.167,381 715.833,380 713.5,379C 705.841,378.5 698.174,378.334 690.5,378.5 Z"/></g>
<g><path style="opacity:0.983" fill="#ebe4cb" d="M 551.5,331.5 C 583.745,330.908 597.911,346.575 594,378.5C 562.203,474.891 530.203,571.225 498,667.5C 488.227,685.883 473.06,692.717 452.5,688C 438.136,683.304 429.97,673.471 428,658.5C 427.228,653.096 427.561,647.762 429,642.5C 460.795,546.113 492.795,449.78 525,353.5C 528.441,345.059 534.274,338.893 542.5,335C 545.718,334.1 548.718,332.933 551.5,331.5 Z"/></g>
<g><path style="opacity:0.985" fill="#ebe4cb" d="M 310.5,379.5 C 327.499,376.108 341.332,381.108 352,394.5C 361.519,413.47 358.686,430.303 343.5,445C 317.963,466.401 292.963,488.235 268.5,510.5C 293.004,532.775 318.004,554.609 343.5,576C 358.685,590.653 361.519,607.486 352,626.5C 341.334,640.057 327.501,644.89 310.5,641C 307.382,639.941 304.382,638.608 301.5,637C 270.785,611.404 240.619,585.237 211,558.5C 206.667,552.833 202.333,547.167 198,541.5C 187.124,521.663 186.791,501.663 197,481.5C 201.281,474.885 205.947,468.552 211,462.5C 241.287,435.428 272.12,408.928 303.5,383C 306.069,382.102 308.402,380.935 310.5,379.5 Z"/></g>
<g><path style="opacity:0.984" fill="#ebe4cb" d="M 691.5,379.5 C 698.508,379.334 705.508,379.5 712.5,380C 714.833,381 717.167,382 719.5,383C 750.88,408.928 781.713,435.428 812,462.5C 816.333,468.167 820.667,473.833 825,479.5C 835.876,499.337 836.209,519.337 826,539.5C 821.385,546.45 816.385,553.116 811,559.5C 783.18,584.315 755.013,608.815 726.5,633C 722.453,636.692 717.786,639.359 712.5,641C 688.725,645.519 673.225,636.353 666,613.5C 663.583,598.412 668.083,585.912 679.5,576C 705.037,554.599 730.037,532.765 754.5,510.5C 730.037,488.235 705.037,466.401 679.5,445C 669.737,437.227 665.071,427.061 665.5,414.5C 666.515,397.151 675.182,385.485 691.5,379.5 Z"/></g>
</svg>
