<svg width="792" height="80" fill="none" xmlns="http://www.w3.org/2000/svg"><path fill="#9FBEDC" d="M0 0h792v40H0z"/><path fill="#000" fill-opacity=".1" d="M0 0h792v1H0zM0 39h792v1H0z"/><path d="M26.3 26h6v-1.1H30V15h-1a7 7 0 01-2.3.8v.9h2v8.2h-2.5V26zm14.9-6v.9h2.6v.7h1.3v-8h-1.3v6.5h-2.6zm-2.8-5.2c1.3 0 2.1.4 2.1 1.1 0 .7-.8 1.2-2.1 1.2s-2.2-.5-2.2-1.2.9-1.1 2.2-1.1zm0 3.1c2 0 3.3-.7 3.3-2 0-1.2-1.3-2-3.3-2-2 0-3.4.8-3.4 2 0 1.3 1.4 2 3.4 2zm-.7 3.7h1.2v-2a50 50 0 004-.4l-.1-.8c-3 .3-6.2.3-8.8.3l.2 1h3.5v2zm-.4 4.5v-1.2h7.8V22h-9v.9h7.8v1H36v3h9.4v-1h-8.2zM91.6 26h7v-1.2h-3.1l-1.8.1c2.6-2.4 4.3-4.7 4.3-6.8 0-2-1.3-3.3-3.2-3.3-1.4 0-2.4.6-3.3 1.6l.8.8c.6-.7 1.4-1.3 2.3-1.3 1.4 0 2 1 2 2.2 0 1.9-1.5 4-5 7v.9zm15.6-6v.9h2.6v.7h1.3v-8h-1.3v6.5h-2.6zm-2.8-5.2c1.3 0 2.1.4 2.1 1.1 0 .7-.8 1.2-2.1 1.2s-2.2-.5-2.2-1.2.9-1.1 2.2-1.1zm0 3.1c2 0 3.3-.7 3.3-2 0-1.2-1.3-2-3.3-2-2 0-3.4.8-3.4 2 0 1.3 1.4 2 3.4 2zm-.7 3.7h1.2v-2a50 50 0 004-.4l-.1-.8c-3 .3-6.2.3-8.8.3l.2 1h3.5v2zm-.4 4.5v-1.2h7.8V22h-9v.9h7.8v1H102v3h9.4v-1h-8.2zM160.9 26.2c2 0 3.5-1.2 3.5-3.1 0-1.5-1-2.5-2.3-2.8 1.2-.5 2-1.4 2-2.7 0-1.8-1.4-2.8-3.2-2.8-1.3 0-2.3.5-3.1 1.3l.7.9c.6-.6 1.4-1 2.3-1.1 1.1 0 1.9.7 1.9 1.8s-.8 2-3 2v1.1c2.4 0 3.3.9 3.3 2.2 0 1.3-.9 2-2.2 2-1.3 0-2-.5-2.7-1.2l-.7.9c.7.8 1.8 1.5 3.5 1.5zm12.3-6.1v.8h2.6v.7h1.3v-8h-1.3v6.5h-2.6zm-2.8-5.3c1.3 0 2.1.4 2.1 1.1 0 .7-.8 1.2-2.1 1.2s-2.2-.5-2.2-1.2.9-1.1 2.2-1.1zm0 3.1c2 0 3.3-.7 3.3-2 0-1.2-1.3-2-3.3-2-2 0-3.4.8-3.4 2 0 1.3 1.4 2 3.4 2zm-.7 3.7h1.2v-2a50 50 0 004-.4l-.1-.8c-3 .3-6.2.3-8.8.3l.2 1h3.5v2zm-.4 4.5v-1.2h7.8V22h-9v.9h7.8v1H168v3h9.4v-1h-8.2zM224.7 21.9l2.5-3.8.9-1.6V22h-3.4zm6 0h-1.4V15h-1.5l-4.6 7v1h4.8v3h1.3v-3h1.5v-1.1zm8.5-1.8v.8h2.6v.7h1.3v-8h-1.3v6.5h-2.6zm-2.8-5.3c1.3 0 2.1.4 2.1 1.1 0 .7-.8 1.2-2.1 1.2s-2.2-.5-2.2-1.2.9-1.1 2.2-1.1zm0 3.1c2 0 3.3-.7 3.3-2 0-1.2-1.3-2-3.3-2-2 0-3.4.8-3.4 2 0 1.3 1.4 2 3.4 2zm-.7 3.7h1.2v-2a50 50 0 004-.4l-.1-.8c-3 .3-6.2.3-8.8.3l.2 1h3.5v2zm-.4 4.5v-1.2h7.8V22h-9v.9h7.8v1H234v3h9.4v-1h-8.2zM292.9 26.2c1.8 0 3.6-1.4 3.6-3.8S295 19 293 19c-.6 0-1.1.2-1.6.5l.3-3.2h4.1V15h-5.3l-.4 5.1.8.5a3 3 0 011.8-.6c1.4 0 2.3.9 2.3 2.5s-1 2.6-2.4 2.6c-1.2 0-2-.6-2.7-1.3l-.6 1c.7.7 1.7 1.4 3.5 1.4zm12.3-6.1v.8h2.6v.7h1.3v-8h-1.3v6.5h-2.6zm-2.8-5.3c1.3 0 2.1.4 2.1 1.1 0 .7-.8 1.2-2.1 1.2s-2.2-.5-2.2-1.2.9-1.1 2.2-1.1zm0 3.1c2 0 3.3-.7 3.3-2 0-1.2-1.3-2-3.3-2-2 0-3.4.8-3.4 2 0 1.3 1.4 2 3.4 2zm-.7 3.7h1.2v-2a50 50 0 004-.4l-.1-.8c-3 .3-6.2.3-8.8.3l.2 1h3.5v2zm-.4 4.5v-1.2h7.8V22h-9v.9h7.8v1H300v3h9.4v-1h-8.2zM359.5 25.1c-1.4 0-2.3-1.2-2.4-3.5.7-1 1.5-1.4 2.2-1.4 1.4 0 2 1 2 2.4 0 1.5-.8 2.5-1.8 2.5zm3-9.2a3.4 3.4 0 00-2.7-1.1c-2 0-4 1.6-4 6 0 3.6 1.5 5.4 3.7 5.4 1.7 0 3.1-1.4 3.1-3.6 0-2.3-1.2-3.4-3-3.4-1 0-1.9.5-2.5 1.3 0-3.4 1.3-4.6 2.8-4.6.7 0 1.3.3 1.8.9l.7-.9zm8.7 4.2v.8h2.6v.7h1.3v-8h-1.3v6.5h-2.6zm-2.8-5.3c1.3 0 2.1.4 2.1 1.1 0 .7-.8 1.2-2.1 1.2s-2.2-.5-2.2-1.2.9-1.1 2.2-1.1zm0 3.1c2 0 3.3-.7 3.3-2 0-1.2-1.3-2-3.3-2-2 0-3.4.8-3.4 2 0 1.3 1.4 2 3.4 2zm-.7 3.7h1.2v-2a50 50 0 004-.4l-.1-.8c-3 .3-6.2.3-8.8.3l.2 1h3.5v2zm-.4 4.5v-1.2h7.8V22h-9v.9h7.8v1H366v3h9.4v-1h-8.2zM424 26h1.3c.2-4.3.7-6.9 3.3-10.2V15h-7v1.2h5.4c-2.1 3-3 5.6-3 9.8zm13.2-6v.9h2.6v.7h1.3v-8h-1.3v6.5h-2.6zm-2.8-5.2c1.3 0 2.1.4 2.1 1.1 0 .7-.8 1.2-2.1 1.2s-2.2-.5-2.2-1.2.9-1.1 2.2-1.1zm0 3.1c2 0 3.3-.7 3.3-2 0-1.2-1.3-2-3.3-2-2 0-3.4.8-3.4 2 0 1.3 1.4 2 3.4 2zm-.7 3.7h1.2v-2a50 50 0 004-.4l-.1-.8c-3 .3-6.2.3-8.8.3l.2 1h3.5v2zm-.4 4.5v-1.2h7.8V22h-9v.9h7.8v1H432v3h9.4v-1h-8.2zM491.1 26.2c2 0 3.5-1.3 3.5-2.9 0-1.5-1-2.3-1.9-2.8v-.1c.7-.5 1.5-1.5 1.5-2.7 0-1.7-1.2-2.9-3-2.9s-3 1.1-3 2.8c0 1.2.6 2 1.4 2.6-1 .6-2 1.6-2 3 0 1.8 1.5 3 3.5 3zm.8-6.2c-1.3-.5-2.5-1-2.5-2.4 0-1 .7-1.8 1.7-1.8 1.2 0 2 1 2 2 0 .8-.5 1.6-1.2 2.2zm-.7 5.2c-1.4 0-2.3-.9-2.3-2s.6-2 1.5-2.5c1.5.6 2.9 1.1 2.9 2.6 0 1.1-.9 1.9-2.1 1.9zm12-5.1v.8h2.6v.7h1.3v-8h-1.3v6.5h-2.6zm-2.8-5.3c1.3 0 2.1.4 2.1 1.1 0 .7-.8 1.2-2.1 1.2s-2.2-.5-2.2-1.2.9-1.1 2.2-1.1zm0 3.1c2 0 3.3-.7 3.3-2 0-1.2-1.3-2-3.3-2-2 0-3.4.8-3.4 2 0 1.3 1.4 2 3.4 2zm-.7 3.7h1.2v-2a50 50 0 004-.4l-.1-.8c-3 .3-6.2.3-8.8.3l.2 1h3.5v2zm-.4 4.5v-1.2h7.8V22h-9v.9h7.8v1H498v3h9.4v-1h-8.2zM556.9 20.8c-1.4 0-2-1-2-2.4 0-1.5.8-2.5 1.9-2.5 1.4 0 2.2 1.2 2.4 3.4-.8 1-1.6 1.5-2.3 1.5zm-3 4.3c.5.6 1.4 1 2.6 1 2 0 4-1.6 4-6 0-3.6-1.6-5.3-3.8-5.3-1.7 0-3.1 1.4-3.1 3.6s1.2 3.4 3 3.4c1 0 1.9-.5 2.6-1.3-.1 3.4-1.4 4.6-2.8 4.6-.7 0-1.4-.4-1.8-.9l-.8.9zm15.3-5v.8h2.6v.7h1.3v-8h-1.3v6.5h-2.6zm-2.8-5.3c1.3 0 2.1.4 2.1 1.1 0 .7-.8 1.2-2.1 1.2s-2.2-.5-2.2-1.2.9-1.1 2.2-1.1zm0 3.1c2 0 3.3-.7 3.3-2 0-1.2-1.3-2-3.3-2-2 0-3.4.8-3.4 2 0 1.3 1.4 2 3.4 2zm-.7 3.7h1.2v-2a50 50 0 004-.4l-.1-.8c-3 .3-6.2.3-8.8.3l.2 1h3.5v2zm-.4 4.5v-1.2h7.8V22h-9v.9h7.8v1H564v3h9.4v-1h-8.2zM616.1 26h6v-1.1H620V15h-1a7 7 0 01-2.3.8v.9h2v8.2H616V26zm11.2.2c2 0 3.4-2 3.4-5.7 0-3.8-1.3-5.7-3.4-5.7-2.1 0-3.5 1.8-3.5 5.7 0 3.8 1.4 5.7 3.5 5.7zm0-1.1c-1.3 0-2.1-1.4-2.1-4.6 0-3.2.8-4.6 2-4.6 1.3 0 2.2 1.4 2.2 4.6 0 3.2-.9 4.6-2.1 4.6zm12-5v.8h2.7v.7h1.2v-8H642v6.5h-2.7zm-2.8-5.3c1.3 0 2.2.4 2.2 1.1 0 .7-.9 1.2-2.2 1.2-1.3 0-2.1-.5-2.1-1.2s.8-1.1 2.1-1.1zm0 3.1c2 0 3.3-.7 3.3-2 0-1.2-1.3-2-3.3-2-2 0-3.3.8-3.3 2 0 1.3 1.3 2 3.3 2zm-.7 3.7h1.3v-2a50 50 0 004-.4l-.2-.8c-2.8.3-6.1.3-8.7.3l.1 1h3.5v2zm-.3 4.5v-1.2h7.7V22h-9v.9h7.8v1h-7.8v3h9.5v-1h-8.2zM682.1 26h6v-1.1H686V15h-1a7 7 0 01-2.3.8v.9h2v8.2H682V26zm8.3 0h6v-1.1h-2.2V15h-1a7 7 0 01-2.3.8v.9h2v8.2h-2.5V26zm15-6v.9h2.6v.7h1.2v-8H708v6.5h-2.7zm-2.9-5.2c1.3 0 2.2.4 2.2 1.1 0 .7-.9 1.2-2.2 1.2-1.3 0-2.1-.5-2.1-1.2s.8-1.1 2.1-1.1zm0 3.1c2 0 3.3-.7 3.3-2 0-1.2-1.3-2-3.3-2-2 0-3.3.8-3.3 2 0 1.3 1.3 2 3.3 2zm-.7 3.7h1.3v-2a50 50 0 004-.4l-.2-.8c-2.8.3-6.1.3-8.7.3l.1 1h3.5v2zm-.3 4.5v-1.2h7.7V22h-9v.9h7.8v1h-7.8v3h9.5v-1h-8.2zM748.1 26h6v-1.1H752V15h-1a7 7 0 01-2.3.8v.9h2v8.2H748V26zm7.7 0h6.9v-1.2h-3l-1.9.1c2.6-2.4 4.3-4.7 4.3-6.8 0-2-1.2-3.3-3.2-3.3-1.4 0-2.3.6-3.2 1.6l.8.8c.6-.7 1.4-1.3 2.3-1.3 1.3 0 2 1 2 2.2 0 1.9-1.6 4-5 7v.9zm15.5-6v.9h2.7v.7h1.2v-8H774v6.5h-2.7zm-2.8-5.2c1.3 0 2.2.4 2.2 1.1 0 .7-.9 1.2-2.2 1.2-1.3 0-2.1-.5-2.1-1.2s.8-1.1 2.1-1.1zm0 3.1c2 0 3.3-.7 3.3-2 0-1.2-1.3-2-3.3-2-2 0-3.3.8-3.3 2 0 1.3 1.3 2 3.3 2zm-.7 3.7h1.3v-2a50 50 0 004-.4l-.2-.8c-2.8.3-6.1.3-8.7.3l.1 1h3.5v2zm-.3 4.5v-1.2h7.7V22h-9v.9h7.8v1h-7.8v3h9.5v-1h-8.2zM0 40h792v40H0z" fill="#fff"/><path fill="#000" fill-opacity=".1" d="M0 79h792v1H0z"/><path d="M26.2 66.2c2.4 0 3.4-1.7 3.4-3.8V55h-2.2v7.3c0 1.6-.5 2-1.5 2-.6 0-1.2-.3-1.6-1l-1.6 1c.8 1.3 1.9 2 3.5 2z" fill="#258BDB"/><path d="M34.2 66.2c1 0 2-.5 2.7-1.2l.2 1h1v-5c0-2-.8-3.4-2.7-3.4-1.3 0-2.5.6-3.2 1.1l.5 1c.6-.5 1.5-1 2.4-1 1.4 0 1.7 1 1.7 2.1-3.4.4-5 1.3-5 3 0 1.6 1 2.4 2.4 2.4zm.4-1.1c-.8 0-1.5-.4-1.5-1.3 0-1 1-1.7 3.7-2V64c-.8.7-1.4 1.1-2.2 1.1zm6.2.9h1.4v-6c.8-.7 1.4-1.2 2.2-1.2 1 0 1.5.7 1.5 2.2v5h1.4v-5.2c0-2-.8-3.2-2.5-3.2-1.1 0-2 .7-2.7 1.4l-.2-1.1h-1.1V66z" fill="#000" fill-opacity=".6"/><path d="M26.2 66.2c2.4 0 3.4-1.7 3.4-3.8V55h-2.2v7.3c0 1.6-.5 2-1.5 2-.6 0-1.2-.3-1.6-1l-1.6 1c.8 1.3 1.9 2 3.5 2z" fill="#258BDB"/><path d="M34.2 66.2c1 0 2-.5 2.7-1.2l.2 1h1v-5c0-2-.8-3.4-2.7-3.4-1.3 0-2.5.6-3.2 1.1l.5 1c.6-.5 1.5-1 2.4-1 1.4 0 1.7 1 1.7 2.1-3.4.4-5 1.3-5 3 0 1.6 1 2.4 2.4 2.4zm.4-1.1c-.8 0-1.5-.4-1.5-1.3 0-1 1-1.7 3.7-2V64c-.8.7-1.4 1.1-2.2 1.1zm6.2.9h1.4v-6c.8-.7 1.4-1.2 2.2-1.2 1 0 1.5.7 1.5 2.2v5h1.4v-5.2c0-2-.8-3.2-2.5-3.2-1.1 0-2 .7-2.7 1.4l-.2-1.1h-1.1V66z" fill="#000" fill-opacity=".6"/><path d="M89.2 66h2.2v-4.5h4v-1.9h-4v-2.9H96V55h-6.8V66z" fill="#258BDB"/><path d="M101.3 66.2c1 0 2-.4 2.7-.8l-.5-1c-.6.5-1.3.7-2 .7-1.6 0-2.7-1.1-2.8-2.8h5.5v-.8c0-2.4-1-3.9-3.2-3.9-1.9 0-3.6 1.7-3.6 4.3 0 2.7 1.7 4.3 3.9 4.3zm-2.6-5c.2-1.5 1.2-2.5 2.4-2.5s2 1 2 2.6h-4.4zm11.2 5c1.8 0 3.5-1.6 3.5-4.4 0-2.5-1.1-4.2-3.2-4.2-1 0-1.9.6-2.6 1.2v-4.7h-1.3V66h1l.2-.8c.8.6 1.6 1 2.4 1zm-.3-1.1c-.5 0-1.2-.3-2-.9v-4.3c.8-.7 1.5-1.1 2.2-1.1 1.6 0 2.2 1.2 2.2 3 0 2-1 3.3-2.4 3.3z" fill="#000" fill-opacity=".6"/><path d="M154.3 66h2v-4.6l-.3-3.7 1 2.6 1.7 4.7h1.3l1.7-4.7.9-2.6-.2 3.7V66h2V54.9h-2.5l-1.8 5.2-.7 2.1-.7-2.1-2-5.2h-2.4V66z" fill="#258BDB"/><path d="M169 66.2c1 0 2-.5 2.7-1.2l.2 1h1.1v-5c0-2-.8-3.4-2.8-3.4-1.3 0-2.5.6-3.2 1.1l.5 1c.7-.5 1.5-1 2.5-1 1.3 0 1.6 1 1.6 2.1-3.4.4-5 1.3-5 3 0 1.6 1 2.4 2.4 2.4zm.4-1.1c-.8 0-1.4-.4-1.4-1.3 0-1 .9-1.7 3.6-2V64c-.8.7-1.4 1.1-2.2 1.1zm6.2.9h1.4v-5.2c.5-1.4 1.4-2 2-2l.8.2.3-1.2-.9-.2c-1 0-1.7.7-2.3 1.7l-.2-1.4h-1V66z" fill="#000" fill-opacity=".6"/><path d="M223 61.4l.4-1.2a80 80 0 001-3.6l1 3.6.3 1.2h-2.6zm4 4.6h2.3l-3.6-11.1h-2.6L219.6 66h2.2l.8-2.9h3.6l.8 2.9z" fill="#258BDB"/><path d="M230.6 69.4h1.4v-4.2c.7.6 1.5 1 2.2 1 1.9 0 3.6-1.6 3.6-4.4 0-2.5-1.2-4.2-3.3-4.2-1 0-1.8.6-2.6 1.2l-.1-1h-1.2v11.6zm3.4-4.3c-.6 0-1.3-.3-2-.9v-4.3c.8-.7 1.5-1.1 2.2-1.1 1.5 0 2.1 1.2 2.1 3 0 2-1 3.3-2.3 3.3zm6 .9h1.3v-5.2c.5-1.4 1.4-2 2-2l.8.2.3-1.2-.9-.2c-.9 0-1.7.7-2.3 1.7L241 58h-1.2V66z" fill="#000" fill-opacity=".6"/><path d="M284.8 66h2v-4.6l-.3-3.7 1 2.6 1.7 4.7h1.3l1.7-4.7.9-2.6-.2 3.7V66h2V54.9h-2.5l-1.8 5.2-.7 2.1-.7-2.1-2-5.2h-2.4V66z" fill="#258BDB"/><path d="M299.5 66.2c1 0 2-.5 2.7-1.2l.2 1h1.1v-5c0-2-.8-3.4-2.8-3.4-1.3 0-2.5.6-3.2 1.1l.5 1c.7-.5 1.5-1 2.5-1 1.3 0 1.6 1 1.6 2.1-3.4.4-5 1.3-5 3 0 1.6 1 2.4 2.4 2.4zm.4-1.1c-.8 0-1.4-.4-1.4-1.3 0-1 .9-1.7 3.6-2V64c-.8.7-1.4 1.1-2.2 1.1zm6.3 4.4c1.7 0 2.5-1.2 3-2.8l3.1-8.8H311l-1.4 4.5-.7 2.3h-.1l-.8-2.3-1.7-4.5H305l3.3 8.1-.2.6c-.3 1-1 1.8-1.8 1.8a2 2 0 01-.7-.2l-.2 1.1c.2.2.5.2 1 .2z" fill="#000" fill-opacity=".6"/><path d="M354.4 66.2c2.4 0 3.4-1.7 3.4-3.8V55h-2.2v7.3c0 1.6-.5 2-1.5 2-.6 0-1.2-.3-1.6-1l-1.6 1c.8 1.3 1.9 2 3.5 2z" fill="#258BDB"/><path d="M362.9 66.2c1.1 0 2-.6 2.7-1.5l.1 1.3h1.2v-8.1h-1.4v5.7c-.8 1-1.4 1.4-2.2 1.4-1 0-1.5-.6-1.5-2.1v-5h-1.4V63c0 2 .8 3.2 2.5 3.2zm6.7-.2h1.4v-6c.8-.7 1.4-1.2 2.2-1.2 1 0 1.6.7 1.6 2.2v5h1.3v-5.2c0-2-.8-3.2-2.5-3.2-1 0-2 .7-2.7 1.4l-.2-1.1h-1V66z" fill="#000" fill-opacity=".6"/><path d="M422.8 66.2c2.4 0 3.5-1.7 3.5-3.8V55H424v7.3c0 1.6-.5 2-1.4 2-.7 0-1.3-.3-1.7-1l-1.5 1c.7 1.3 1.8 2 3.4 2z" fill="#258BDB"/><path d="M431.3 66.2c1.1 0 2-.6 2.7-1.5l.2 1.3h1.1v-8.1H434v5.7c-.7 1-1.3 1.4-2.2 1.4-1 0-1.5-.6-1.5-2.1v-5h-1.4V63c0 2 .8 3.2 2.5 3.2zm8.2 0l.8-.1-.2-1h-.3c-.2 0-.4-.2-.4-.6V54h-1.3v10.3c0 1.1.4 1.8 1.4 1.8z" fill="#000" fill-opacity=".6"/><path d="M485.4 61.4l.3-1.2a80 80 0 001-3.6l1 3.6.3 1.2h-2.6zm3.9 4.6h2.3L488 54.9h-2.6L482 66h2.2l.8-2.9h3.6l.8 2.9z" fill="#258BDB"/><path d="M495.3 66.2c1.1 0 2-.6 2.7-1.5l.1 1.3h1.2v-8.1h-1.4v5.7c-.8 1-1.4 1.4-2.2 1.4-1 0-1.5-.6-1.5-2.1v-5h-1.4V63c0 2 .8 3.2 2.5 3.2zm9.5 3.5c2.5 0 4-1.3 4-2.8 0-1.3-.9-2-2.8-2h-1.6c-1 0-1.4-.3-1.4-.8 0-.4.2-.7.5-1 .4.2.9.3 1.3.3 1.6 0 3-1 3-2.8 0-.7-.3-1.3-.7-1.7h1.6v-1H506c-.3-.1-.7-.3-1.1-.3-1.7 0-3.1 1.2-3.1 3 0 1 .5 1.7 1 2.1v.1c-.4.3-.9.8-.9 1.5s.4 1.1.8 1.4c-.8.5-1.2 1.2-1.2 1.9 0 1.4 1.4 2.2 3.4 2.2zm0-7.2c-1 0-1.8-.8-1.8-2 0-1.1.8-1.9 1.8-1.9s1.7.8 1.7 2c0 1.1-.8 1.9-1.7 1.9zm.2 6.3c-1.5 0-2.4-.5-2.4-1.4 0-.5.2-1 .8-1.4l1 .1h1.5c1 0 1.6.3 1.6 1 0 .9-1 1.7-2.5 1.7z" fill="#000" fill-opacity=".6"/><path d="M552.2 66.2c2.6 0 4-1.5 4-3.4 0-1.6-.8-2.4-2.2-3l-1.4-.6c-1-.4-1.8-.6-1.8-1.4 0-.8.7-1.2 1.7-1.2.9 0 1.6.3 2.3 1L556 56a5 5 0 00-3.4-1.4c-2.3 0-3.9 1.4-3.9 3.2 0 1.6 1.1 2.5 2.3 3l1.4.6c1 .4 1.7.7 1.7 1.5s-.6 1.3-1.8 1.3c-1 0-2-.5-2.8-1.2l-1.3 1.5a6 6 0 004.1 1.6z" fill="#258BDB"/><path d="M561.5 66.2c1.2 0 2-.4 2.7-.8l-.5-1c-.6.5-1.2.7-2 .7-1.5 0-2.6-1.1-2.7-2.8h5.5v-.8c0-2.4-1.1-3.9-3.2-3.9-1.9 0-3.7 1.7-3.7 4.3 0 2.7 1.8 4.3 4 4.3zm-2.5-5c.2-1.5 1.2-2.5 2.3-2.5 1.3 0 2 1 2 2.6H559zm7.6 8.2h1.3v-4.2c.7.6 1.5 1 2.2 1 2 0 3.6-1.6 3.6-4.4 0-2.5-1.2-4.2-3.3-4.2-.9 0-1.8.6-2.5 1.2l-.2-1h-1.1v11.6zm3.3-4.3c-.5 0-1.2-.3-2-.9v-4.3c.8-.7 1.5-1.1 2.2-1.1 1.6 0 2.2 1.2 2.2 3 0 2-1 3.3-2.4 3.3z" fill="#000" fill-opacity=".6"/><path d="M620 66.2c2.9 0 5-2.2 5-5.8 0-3.6-2.1-5.7-5-5.7-3 0-5 2-5 5.7 0 3.6 2 5.8 5 5.8zm0-2c-1.7 0-2.8-1.4-2.8-3.8s1-3.8 2.7-3.8c1.7 0 2.7 1.4 2.7 3.8s-1 3.9-2.7 3.9z" fill="#258BDB"/><path d="M630.3 66.2c1 0 1.9-.4 2.6-1l-.6-1c-.5.5-1.1.9-1.9.9-1.5 0-2.5-1.3-2.5-3.2 0-1.8 1-3.1 2.5-3.1.7 0 1.2.3 1.7.7l.7-.9c-.6-.5-1.3-1-2.4-1-2 0-4 1.6-4 4.3 0 2.7 1.7 4.3 3.9 4.3zm6.8 0l1.5-.3-.2-1-1 .2c-1 0-1.2-.6-1.2-1.6V59h2.2v-1.1h-2.2v-2.3H635l-.1 2.3h-1.3v1h1.2v4.6c0 1.6.6 2.7 2.3 2.7z" fill="#000" fill-opacity=".6"/><path d="M679.3 66h2.1v-4.5c0-1.2-.1-2.6-.3-3.8h.1l1.1 2.4 3.3 5.9h2.2V54.9h-2v4.4c0 1.3 0 2.8.2 4l-1.2-2.5-3.2-5.9h-2.3V66z" fill="#258BDB"/><path d="M693.7 66.2c2 0 3.8-1.6 3.8-4.3 0-2.7-1.8-4.3-3.8-4.3-2 0-3.7 1.6-3.7 4.3 0 2.7 1.7 4.3 3.7 4.3zm0-1.1c-1.4 0-2.3-1.3-2.3-3.2 0-1.8 1-3.1 2.3-3.1 1.4 0 2.4 1.3 2.4 3.1 0 2-1 3.2-2.4 3.2zm7.7.9h1.6l2.8-8.1h-1.3l-1.5 4.6-.8 2.4-.8-2.4-1.6-4.6h-1.4l3 8.1z" fill="#000" fill-opacity=".6"/><path d="M746 66h3.2c3.3 0 5.4-1.9 5.4-5.6 0-3.7-2.1-5.5-5.5-5.5h-3V66zm2.3-1.8v-7.5h.7c2 0 3.3 1 3.3 3.7s-1.3 3.8-3.3 3.8h-.7z" fill="#258BDB"/><path d="M760 66.2c1.2 0 2-.4 2.8-.8l-.5-1c-.6.5-1.3.7-2 .7-1.6 0-2.7-1.1-2.8-2.8h5.5v-.8c0-2.4-1.1-3.9-3.2-3.9-1.9 0-3.6 1.7-3.6 4.3 0 2.7 1.7 4.3 3.8 4.3zm-2.5-5c.2-1.5 1.2-2.5 2.3-2.5 1.3 0 2 1 2 2.6h-4.3zm10.8 5c1 0 1.9-.4 2.6-1l-.6-1c-.5.5-1.1.9-1.9.9-1.5 0-2.5-1.3-2.5-3.2 0-1.8 1-3.1 2.5-3.1.7 0 1.2.3 1.7.7l.7-.9c-.6-.5-1.3-1-2.4-1-2.1 0-4 1.6-4 4.3 0 2.7 1.7 4.3 3.9 4.3z" fill="#000" fill-opacity=".6"/></svg>