<svg width="387" height="108" fill="none" xmlns="http://www.w3.org/2000/svg"><rect y="48" width="32" height="40" rx="4" fill="#fff"/><rect x=".5" y="48.5" width="31" height="39" rx="3.5" stroke="#000" stroke-opacity=".4"/><rect x="36" y="48" width="32" height="40" rx="4" fill="#fff"/><rect x="36.5" y="48.5" width="31" height="39" rx="3.5" stroke="#000" stroke-opacity=".4"/><rect x="72" y="48" width="32" height="40" rx="4" fill="#fff"/><rect x="72.5" y="48.5" width="31" height="39" rx="3.5" stroke="#000" stroke-opacity=".4"/><rect x="108" y="48" width="32" height="40" rx="4" fill="#fff"/><rect x="108.5" y="48.5" width="31" height="39" rx="3.5" stroke="#000" stroke-opacity=".4"/><rect x="144" y="48" width="32" height="40" rx="4" fill="#fff"/><rect x="144.5" y="48.5" width="31" height="39" rx="3.5" stroke="#000" stroke-opacity=".4"/><rect x="216" y="48" width="32" height="40" rx="4" fill="#fff"/><rect x="216.5" y="48.5" width="31" height="39" rx="3.5" stroke="#000" stroke-opacity=".4"/><rect x="180" y="48" width="32" height="40" rx="4" fill="#fff"/><rect x="180.5" y="48.5" width="31" height="39" rx="3.5" stroke="#000" stroke-opacity=".4"/><path d="M105.6 3.9c0 1.5 0 3.3-.5 5.7l1.5.2c.5-2.6.5-4.4.5-6V2.7h-9v1.2h7.5zm-3 7.3V6.8h-1.5v4.4H97v1.2h11.4v-1.2h-5.7zm14-6.6v1.2h2.2V9h1.4V1.4h-1.4v3.2h-2.2zm.7 2.8c-2-.6-3-2.2-3-3.8v-.1h2.6V2.3h-6.7v1.2h2.7v.1c0 1.8-1.2 3.4-3.1 4.1l.7 1.2a5.2 5.2 0 003.1-3 5 5 0 003 2.7l.7-1.2zM116 13c-1.8 0-2.8-.5-2.8-1.3s1-1.3 2.8-1.3c1.8 0 2.8.5 2.8 1.3s-1 1.3-2.8 1.3zm0-3.7c-2.6 0-4.2.9-4.2 2.4s1.6 2.4 4.2 2.4c2.7 0 4.3-.9 4.3-2.4s-1.6-2.4-4.3-2.4zm11.4-4.1c0-1.1.8-1.8 1.9-1.8 1.1 0 2 .7 2 1.8 0 1-.9 1.8-2 1.8s-2-.7-2-1.8zm5.3 0c0-1.8-1.5-3-3.4-3-2 0-3.4 1.2-3.4 3s1.5 3 3.4 3c2 0 3.4-1.2 3.4-3zm-3.7 5.2h5.2v2.4H129v-2.4zm-1.4 3.5h8V9.3h-8v4.6zm9.8-9.5h-1.7v-3h-1.5v7.3h1.5V5.6h1.7V4.4zm12.1-1.2h-4.4V1.6h-1.5v1.6h-4.4v1.1h10.3V3.2zm-7.9 4.3c0-.9 1-1.3 2.7-1.3 1.8 0 2.8.4 2.8 1.3 0 .8-1 1.3-2.8 1.3-1.7 0-2.7-.5-2.7-1.3zm3.5 4V10c2.2-.2 3.5-1 3.5-2.4 0-1.6-1.7-2.5-4.3-2.5-2.5 0-4.2 1-4.2 2.5 0 1.4 1.4 2.2 3.5 2.4v1.6h-5v1.2h11.5v-1.2h-5zm-35.9 18.7l.7-.3c-1-1.6-1.4-3.5-1.4-5.3 0-1.9.4-3.7 1.4-5.3l-.7-.3c-1 1.6-1.6 3.4-1.6 5.6 0 2.1.6 4 1.6 5.6zm3.3-2.2h1c.2-3.2.5-5 2.4-7.5V20h-5v.9h3.9a12 12 0 00-2.3 7.2zm7.8-7.3h2.2V20h-5.3v.7h2.2V22c0 1.6-1.1 3.5-2.6 4.2l.6.7c1-.5 2-1.8 2.5-3.2a5.3 5.3 0 002.5 3l.5-.7a4.7 4.7 0 01-2.6-4v-1.3zm6 2.2h-1.7v-4h-.9v10h1v-5.2h1.5v-.8zm2.3.5h3.6v-3.5h-4.5v.7h3.6v2h-3.6v3.8h.8c1.7 0 3.2 0 5-.3l-.1-.8a29 29 0 01-4.8.4v-2.3zm5.7-4.5v10h1v-10h-1zm3.5 11.3a10.2 10.2 0 000-11.2l-.7.3a10.2 10.2 0 010 10.6l.7.3z" fill="#000" fill-opacity=".5"/><path fill="#000" fill-opacity=".6" d="M0 39h248v1H0z"/><path d="M264.3 69l1.2-4c1-3.2 1.9-6.4 2.7-9.8h.2l2.8 9.8 1.2 4h-8zM276 81h4.9L271 51.6h-5.3L256 81h4.7l2.5-8.4h10.3L276 81z" fill="#258BDB"/><path d="M290.8 81.5c3 0 5.2-1.5 7.2-3.8h.1l.4 3.3h3.7V59h-4.6v15.3c-1.8 2.3-3.2 3.3-5.2 3.3-2.6 0-3.7-1.5-3.7-5.3V59H284v13.8c0 5.6 2 8.7 6.7 8.7zm25.9 9.4c7 0 11.5-3.5 11.5-7.7 0-3.8-2.7-5.4-8-5.4h-4c-2.8 0-3.6-.8-3.6-2.1 0-1 .4-1.7 1.2-2.3 1 .4 2 .6 3 .6 4.6 0 8.3-2.7 8.3-7.5a6 6 0 00-1.5-4h4.2V59H320c-.8-.3-2-.6-3.2-.6-4.5 0-8.5 3-8.5 8 0 2.6 1.4 4.6 3 5.8v.2c-1.3.8-2.5 2.3-2.5 4 0 1.8.8 3 2 3.7v.2c-2 1.2-3.2 3-3.2 4.8 0 3.8 3.8 5.8 9 5.8zm.1-19.8c-2.2 0-4.1-1.8-4.1-4.7 0-3 1.8-4.7 4.1-4.7 2.4 0 4.2 1.7 4.2 4.7 0 2.9-1.9 4.7-4.2 4.7zm.6 16.7c-3.7 0-6-1.2-6-3.4 0-1.1.6-2.2 2-3.2.9.2 1.9.3 3 .3h3.2c2.7 0 4.2.6 4.2 2.4 0 2-2.6 4-6.4 4zM346.4 81.5c5.8 0 9.5-5.1 9.5-15.3 0-10.2-3.7-15.2-9.5-15.2s-9.5 5-9.5 15.2 3.7 15.3 9.5 15.3zm0-3.6c-3 0-5.1-3.2-5.1-11.7s2.1-11.6 5.1-11.6c3 0 5.1 3.1 5.1 11.6s-2.1 11.7-5.1 11.7zm13.2 3.1h19v-4h-7.4c-1.4 0-3.3.2-4.8.4 6.3-6 10.8-11.9 10.8-17.6 0-5.3-3.5-8.8-9-8.8-3.7 0-6.3 1.7-8.9 4.4L362 58c1.6-1.8 3.5-3.3 5.8-3.3 3.3 0 5 2.2 5 5.4 0 4.8-4.4 10.5-13.1 18.2V81z" fill="#000" fill-opacity=".5"/><path d="M254.6 98.4h2.8v-1h-4v7h.7c1.6 0 2.7-.1 4-.4l-.1-1c-1.1.3-2.1.3-3.4.3v-5zm6.5-2.3v4.3h-1.3v-4.1h-1.1v10h1.1v-5h1.3v5.6h1.2V96.1H261zm10.3 3.4h-4.9v-2h5v2zm1.2-3h-7.3v4h7.3v-4zm-6 7h-1.3v3.2h7.5v-1h-6.3v-2.1zm-2.5-2v1h4.4v2h1.2v-2h4.2v-1h-9.8zm14.8-3.3h2.3v-1h-5.9v1h2.4v1c0 1.8-1.1 3.9-2.8 4.7l.7 1c1.3-.7 2.2-2 2.7-3.5a5.5 5.5 0 002.7 3.2l.6-1a5 5 0 01-2.7-4.4v-1zm6.3 2.2h-1.7V96h-1.2v10.8h1.2v-5.5h1.7v-1zM255 86h27v3h-27z" fill="#258BDB"/><path d="M293.4 7.4v.9h2.4v.5h1.4V1.4h-1.4v6h-2.4zm-2.6-4.8c1 0 1.8.4 1.8 1 0 .5-.7.9-1.8.9-1 0-1.8-.4-1.8-1 0-.5.7-.9 1.8-.9zm0 2.8c1.9 0 3.1-.7 3.1-1.9 0-1.1-1.2-1.8-3-1.8-2 0-3.2.7-3.2 1.8 0 1.2 1.2 2 3.1 2zM290 9h1.5v-2c1.1 0 2.3 0 3.5-.2v-1a82 82 0 01-8.3.4l.2 1h3.1v1.8zm0 4V12h7.2V9.3h-8.6v1h7.2v.8h-7.2V14h9v-1h-7.5zM267 30.2l.6-.3c-1-1.6-1.4-3.5-1.4-5.3 0-1.9.5-3.7 1.4-5.3l-.6-.3c-1 1.6-1.6 3.4-1.6 5.6 0 2.1.6 4 1.6 5.6zm2.7-8.3c0-1 .7-1.6 1.7-1.6s1.6.7 1.6 1.6c0 .9-.7 1.6-1.6 1.6-1 0-1.7-.7-1.7-1.6zm6.2-.8v1.5h-2.1V22 21h2zm0 2.3v1.4h.9v-5.9h-1v1.5h-2.4c-.5-.5-1.2-.9-2-.9-1.5 0-2.6 1-2.6 2.4s1.1 2.3 2.6 2.3c.8 0 1.5-.3 2-.8h2.5zm-2.4 4.7c-1.5 0-2.4-.5-2.4-1.2s1-1.2 2.4-1.2c1.5 0 2.4.5 2.4 1.2s-.9 1.2-2.4 1.2zm0-3c-2 0-3.3.6-3.3 1.8 0 1.2 1.3 1.9 3.3 1.9 2 0 3.3-.7 3.3-1.9s-1.2-1.9-3.3-1.9zm12.2-3h-4.9v-2h4.9v2zm.9-2.7h-6.7V23h6.7v-3.5zm-5.8 6.4h-.9v2.8h6.8v-.7h-5.9v-2.1zm-2-1.8v.7h4v2h1v-2h4V24h-9zm14.9 4.1c1.4 0 2.6-.8 2.6-2.3 0-1-.8-1.8-1.7-2 .8-.4 1.4-1 1.4-2 0-1.3-1-2-2.3-2-1 0-1.7.4-2.3 1l.5.6c.5-.5 1-.8 1.7-.8.8 0 1.4.5 1.4 1.3 0 .9-.6 1.5-2.3 1.5v.8c1.9 0 2.5.6 2.5 1.6s-.6 1.5-1.6 1.5-1.5-.4-2-1l-.5.7c.5.6 1.3 1.1 2.6 1.1zm7-7.4h2.3V20h-5.4v.7h2.3V22c0 1.6-1.2 3.5-2.6 4.2l.5.7c1.1-.5 2.1-1.8 2.5-3.2a5.3 5.3 0 002.5 3l.5-.7a4.7 4.7 0 01-2.5-4v-1.3zm6 2.2H305v-4h-1v10h1v-5.2h1.6v-.8zm2.4.5h3.6v-3.5H308v.7h3.7v2H308v3.8h.8c1.7 0 3.2 0 5-.3l-.1-.8a29 29 0 01-4.8.4v-2.3zm5.7-4.5v10h.9v-10h-1zm3.4 11.3a10.2 10.2 0 000-11.2l-.6.3c1 1.6 1.4 3.4 1.4 5.3 0 1.8-.5 3.7-1.4 5.3l.6.3zM363.2 1.4h-1.5v6.4h1.5V1.4zm-8.8 3.3c0-1 .8-1.7 2-1.7 1 0 1.8.7 1.8 1.7s-.8 1.7-1.9 1.7c-1 0-1.9-.7-1.9-1.7zm5.2 0c0-1.7-1.4-2.9-3.3-2.9S353 3 353 4.7s1.4 2.8 3.3 2.8c2 0 3.3-1.1 3.3-2.8zm-3.3 8v-1h6.9V8.4h-8.3v1.2h6.9v1h-6.9V14h8.7v-1.1h-7.3zM333 30.3l.6-.3c-1-1.6-1.4-3.5-1.4-5.3 0-1.9.5-3.7 1.4-5.3l-.6-.3c-1 1.6-1.6 3.4-1.6 5.6 0 2.1.6 4 1.6 5.6zm10-8.2c-1.7-.2-3.4-1.3-3.4-2.5v-.4h-1v.4c0 1.3-1.7 2.3-3.4 2.5l.3.7c1.5-.2 3-1 3.6-2 .7 1 2.1 1.8 3.7 2l.3-.7zm-3.4 3.7h-1v.3c0 1.1-1.5 1.9-3.3 2l.3.8c1.6-.2 3-.8 3.5-1.7.6 1 2 1.5 3.5 1.7l.3-.7c-1.8-.2-3.3-1-3.3-2v-.4zm-5-2.3v.8h4v1h1v-1h4v-.8h-9zm13.5-2.7h2.2V20h-5.3v.7h2.2V22c0 1.6-1.2 3.5-2.6 4.2l.5.7c1.2-.5 2.1-1.8 2.6-3.2a5.3 5.3 0 002.4 3l.6-.7a4.7 4.7 0 01-2.6-4v-1.3zm5.9 2.2h-1.6v-4h-1v10h1v-5.2h1.6v-.8zm3.3 5.1h5v-.9H360l-1.3.1c1.9-1.8 3.1-3.4 3.1-5 0-1.5-.9-2.4-2.3-2.4-1 0-1.7.5-2.4 1.2l.6.5c.4-.5 1-.9 1.7-.9 1 0 1.5.7 1.5 1.6 0 1.4-1.2 3-3.7 5.2v.6zm9.5-7.3h2.2V20h-5.4v.7h2.3V22c0 1.6-1.2 3.5-2.6 4.2l.5.7c1.1-.5 2.1-1.8 2.5-3.2a5.3 5.3 0 002.5 3l.5-.7a4.7 4.7 0 01-2.5-4v-1.3zm5.9 2.2H371v-4h-1v10h1v-5.2h1.6v-.8zm2.4.5h3.6v-3.5H374v.7h3.7v2H374v3.8h.8c1.7 0 3.2 0 5-.3l-.1-.8a29 29 0 01-4.8.4v-2.3zm5.7-4.5v10h.9v-10h-1zm3.4 11.3a10.2 10.2 0 000-11.2l-.6.3c1 1.6 1.4 3.4 1.4 5.3 0 1.8-.5 3.7-1.4 5.3l.6.3z" fill="#000" fill-opacity=".5"/><path fill="#000" fill-opacity=".6" d="M256 39h73v1h-73zM335 39h46v1h-46z"/></svg>